<mxfile host="65bd71144e">
    <diagram id="EZxaQw9ckF1vR2Bi5WWT" name="corefraction">
        <mxGraphModel dx="2094" dy="989" grid="1" gridSize="10" guides="1" tooltips="1" connect="1" arrows="1" fold="1" page="1" pageScale="1" pageWidth="690" pageHeight="980" math="0" shadow="0">
            <root>
                <mxCell id="0"/>
                <mxCell id="1" parent="0"/>
                <mxCell id="n0-n5LDCgGcwt_cGDenJ-158" value="" style="rounded=0;whiteSpace=wrap;html=1;strokeColor=none;" vertex="1" parent="1">
                    <mxGeometry y="400" width="800" height="960" as="geometry"/>
                </mxCell>
                <mxCell id="49" value="" style="endArrow=classic;html=1;fontFamily=JetBrains Mono;fontSource=https%3A%2F%2Ffonts.googleapis.com%2Fcss%3Ffamily%3DJetBrains%2BMono;fontColor=#FFFFFF;" parent="1" edge="1">
                    <mxGeometry width="50" height="50" relative="1" as="geometry">
                        <mxPoint x="480" y="759" as="sourcePoint"/>
                        <mxPoint x="720" y="759" as="targetPoint"/>
                    </mxGeometry>
                </mxCell>
                <mxCell id="50" value="" style="endArrow=classic;html=1;fontFamily=JetBrains Mono;fontSource=https%3A%2F%2Ffonts.googleapis.com%2Fcss%3Ffamily%3DJetBrains%2BMono;fontColor=#FFFFFF;" parent="1" edge="1">
                    <mxGeometry width="50" height="50" relative="1" as="geometry">
                        <mxPoint x="480" y="759" as="sourcePoint"/>
                        <mxPoint x="480" y="579" as="targetPoint"/>
                    </mxGeometry>
                </mxCell>
                <mxCell id="51" value="&lt;font color=&quot;#000000&quot;&gt;t&lt;/font&gt;" style="text;html=1;strokeColor=none;fillColor=none;align=center;verticalAlign=middle;whiteSpace=wrap;rounded=0;labelBackgroundColor=none;fontFamily=JetBrains Mono;fontSource=https%3A%2F%2Ffonts.googleapis.com%2Fcss%3Ffamily%3DJetBrains%2BMono;fontColor=#FFFFFF;" parent="1" vertex="1">
                    <mxGeometry x="680" y="729" width="60" height="30" as="geometry"/>
                </mxCell>
                <mxCell id="52" value="&lt;font color=&quot;#000000&quot;&gt;CPU load&lt;/font&gt;" style="text;html=1;strokeColor=none;fillColor=none;align=left;verticalAlign=middle;whiteSpace=wrap;rounded=0;labelBackgroundColor=none;fontFamily=JetBrains Mono;fontSource=https%3A%2F%2Ffonts.googleapis.com%2Fcss%3Ffamily%3DJetBrains%2BMono;fontColor=#FFFFFF;" parent="1" vertex="1">
                    <mxGeometry x="490" y="569" width="60" height="30" as="geometry"/>
                </mxCell>
                <mxCell id="58" value="" style="rounded=1;whiteSpace=wrap;html=1;arcSize=5;strokeWidth=2;fontFamily=JetBrains Mono;fontSource=https%3A%2F%2Ffonts.googleapis.com%2Fcss%3Ffamily%3DJetBrains%2BMono;fillColor=#e7e9f5;strokeColor=#e7e9f5;fontStyle=1" parent="1" vertex="1">
                    <mxGeometry x="40" y="440" width="360" height="340" as="geometry"/>
                </mxCell>
                <mxCell id="59" value="" style="rounded=1;whiteSpace=wrap;html=1;arcSize=5;strokeWidth=2;fontFamily=JetBrains Mono;fontSource=https%3A%2F%2Ffonts.googleapis.com%2Fcss%3Ffamily%3DJetBrains%2BMono;fillColor=#408bff;fontColor=#f5f5fb;strokeColor=#408bff;fontStyle=1" parent="1" vertex="1">
                    <mxGeometry x="50" y="480" width="160" height="200" as="geometry"/>
                </mxCell>
                <mxCell id="61" value="vCPU" style="rounded=0;whiteSpace=wrap;html=1;labelBackgroundColor=none;fontFamily=JetBrains Mono;fontSource=https%3A%2F%2Ffonts.googleapis.com%2Fcss%3Ffamily%3DJetBrains%2BMono;fillColor=#cdd1e6;strokeColor=#cdd1e6;" parent="1" vertex="1">
                    <mxGeometry x="110" y="600" width="40" height="40" as="geometry"/>
                </mxCell>
                <mxCell id="62" value="spec:&lt;br&gt;&amp;nbsp; cores: 1&lt;br&gt;&amp;nbsp; coreFraction: 20%" style="text;html=1;align=left;verticalAlign=middle;resizable=0;points=[];autosize=1;strokeColor=none;fillColor=none;fontFamily=JetBrains Mono;fontColor=#FFFFFF;fontStyle=1" parent="1" vertex="1">
                    <mxGeometry x="50" y="510" width="160" height="60" as="geometry"/>
                </mxCell>
                <mxCell id="63" style="edgeStyle=orthogonalEdgeStyle;html=1;exitX=0.5;exitY=0;exitDx=0;exitDy=0;fontFamily=JetBrains Mono;fontSource=https%3A%2F%2Ffonts.googleapis.com%2Fcss%3Ffamily%3DJetBrains%2BMono;fontColor=#FFFFFF;endArrow=none;endFill=0;" parent="1" source="64" target="61" edge="1">
                    <mxGeometry relative="1" as="geometry">
                        <Array as="points">
                            <mxPoint x="220" y="690"/>
                            <mxPoint x="130" y="690"/>
                        </Array>
                    </mxGeometry>
                </mxCell>
                <mxCell id="64" value="pCPU" style="rounded=0;whiteSpace=wrap;html=1;labelBackgroundColor=none;fontFamily=JetBrains Mono;fontSource=https%3A%2F%2Ffonts.googleapis.com%2Fcss%3Ffamily%3DJetBrains%2BMono;fillColor=#cdd1e6;strokeColor=#cdd1e6;" parent="1" vertex="1">
                    <mxGeometry x="200" y="700" width="40" height="40" as="geometry"/>
                </mxCell>
                <mxCell id="66" value="Node" style="text;html=1;align=center;verticalAlign=middle;resizable=0;points=[];autosize=1;strokeColor=none;fillColor=none;fontFamily=JetBrains Mono;fontColor=default;fontStyle=1;labelBackgroundColor=none;" parent="1" vertex="1">
                    <mxGeometry x="45" y="440" width="50" height="30" as="geometry"/>
                </mxCell>
                <mxCell id="68" value="capacity: &lt;font&gt;&lt;b&gt;1cpu&lt;/b&gt;&lt;/font&gt;&lt;br&gt;available for scheduling:&amp;nbsp;&lt;font&gt;&lt;b&gt;0.8cpu&lt;/b&gt;&lt;/font&gt;" style="text;html=1;strokeColor=none;fillColor=none;align=left;verticalAlign=middle;whiteSpace=wrap;rounded=0;labelBackgroundColor=none;fontFamily=JetBrains Mono;fontSource=https%3A%2F%2Ffonts.googleapis.com%2Fcss%3Ffamily%3DJetBrains%2BMono;fontColor=default;fontStyle=0;" parent="1" vertex="1">
                    <mxGeometry x="55" y="740" width="265" height="30" as="geometry"/>
                </mxCell>
                <mxCell id="71" value="" style="endArrow=classic;html=1;fontFamily=JetBrains Mono;fontSource=https%3A%2F%2Ffonts.googleapis.com%2Fcss%3Ffamily%3DJetBrains%2BMono;fontColor=#FFFFFF;" parent="1" edge="1">
                    <mxGeometry width="50" height="50" relative="1" as="geometry">
                        <mxPoint x="480" y="1238.75" as="sourcePoint"/>
                        <mxPoint x="720" y="1238.75" as="targetPoint"/>
                    </mxGeometry>
                </mxCell>
                <mxCell id="72" value="" style="endArrow=classic;html=1;fontFamily=JetBrains Mono;fontSource=https%3A%2F%2Ffonts.googleapis.com%2Fcss%3Ffamily%3DJetBrains%2BMono;fontColor=#FFFFFF;" parent="1" edge="1">
                    <mxGeometry width="50" height="50" relative="1" as="geometry">
                        <mxPoint x="480" y="1238.75" as="sourcePoint"/>
                        <mxPoint x="480" y="1058.75" as="targetPoint"/>
                    </mxGeometry>
                </mxCell>
                <mxCell id="73" value="&lt;font color=&quot;#000000&quot;&gt;t&lt;/font&gt;" style="text;html=1;strokeColor=none;fillColor=none;align=center;verticalAlign=middle;whiteSpace=wrap;rounded=0;labelBackgroundColor=none;fontFamily=JetBrains Mono;fontSource=https%3A%2F%2Ffonts.googleapis.com%2Fcss%3Ffamily%3DJetBrains%2BMono;fontColor=#FFFFFF;" parent="1" vertex="1">
                    <mxGeometry x="680" y="1208.75" width="60" height="30" as="geometry"/>
                </mxCell>
                <mxCell id="74" value="&lt;font color=&quot;#000000&quot;&gt;CPU load&lt;/font&gt;" style="text;html=1;strokeColor=none;fillColor=none;align=left;verticalAlign=middle;whiteSpace=wrap;rounded=0;labelBackgroundColor=none;fontFamily=JetBrains Mono;fontSource=https%3A%2F%2Ffonts.googleapis.com%2Fcss%3Ffamily%3DJetBrains%2BMono;fontColor=#FFFFFF;" parent="1" vertex="1">
                    <mxGeometry x="490" y="1048.75" width="60" height="30" as="geometry"/>
                </mxCell>
                <mxCell id="78" value="" style="rounded=1;whiteSpace=wrap;html=1;arcSize=5;strokeWidth=2;fontFamily=JetBrains Mono;fontSource=https%3A%2F%2Ffonts.googleapis.com%2Fcss%3Ffamily%3DJetBrains%2BMono;fillColor=#e7e9f5;strokeColor=#e7e9f5;fontStyle=1" parent="1" vertex="1">
                    <mxGeometry x="40" y="920" width="360" height="340" as="geometry"/>
                </mxCell>
                <mxCell id="79" value="" style="rounded=1;whiteSpace=wrap;html=1;arcSize=5;strokeWidth=2;fontFamily=JetBrains Mono;fontSource=https%3A%2F%2Ffonts.googleapis.com%2Fcss%3Ffamily%3DJetBrains%2BMono;fillColor=#408bff;fontColor=#f5f5fb;strokeColor=#408bff;fontStyle=1" parent="1" vertex="1">
                    <mxGeometry x="50" y="960" width="160" height="200" as="geometry"/>
                </mxCell>
                <mxCell id="81" value="vCPU" style="rounded=0;whiteSpace=wrap;html=1;labelBackgroundColor=none;fontFamily=JetBrains Mono;fontSource=https%3A%2F%2Ffonts.googleapis.com%2Fcss%3Ffamily%3DJetBrains%2BMono;fillColor=#cdd1e6;strokeColor=#cdd1e6;" parent="1" vertex="1">
                    <mxGeometry x="110" y="1080" width="40" height="40" as="geometry"/>
                </mxCell>
                <mxCell id="82" value="spec:&lt;br&gt;&amp;nbsp; cores: 1&lt;br&gt;&amp;nbsp; coreFraction: 20%" style="text;html=1;align=left;verticalAlign=middle;resizable=0;points=[];autosize=1;strokeColor=none;fillColor=none;fontFamily=JetBrains Mono;fontColor=#FFFFFF;fontStyle=1" parent="1" vertex="1">
                    <mxGeometry x="50" y="990" width="160" height="60" as="geometry"/>
                </mxCell>
                <mxCell id="83" style="edgeStyle=orthogonalEdgeStyle;html=1;exitX=0.5;exitY=0;exitDx=0;exitDy=0;fontFamily=JetBrains Mono;fontSource=https%3A%2F%2Ffonts.googleapis.com%2Fcss%3Ffamily%3DJetBrains%2BMono;fontColor=#FFFFFF;endArrow=none;endFill=0;" parent="1" source="84" target="81" edge="1">
                    <mxGeometry relative="1" as="geometry">
                        <Array as="points">
                            <mxPoint x="220" y="1170"/>
                            <mxPoint x="130" y="1170"/>
                        </Array>
                    </mxGeometry>
                </mxCell>
                <mxCell id="84" value="pCPU" style="rounded=0;whiteSpace=wrap;html=1;labelBackgroundColor=none;fontFamily=JetBrains Mono;fontSource=https%3A%2F%2Ffonts.googleapis.com%2Fcss%3Ffamily%3DJetBrains%2BMono;fillColor=#cdd1e6;strokeColor=#cdd1e6;" parent="1" vertex="1">
                    <mxGeometry x="200" y="1180" width="40" height="40" as="geometry"/>
                </mxCell>
                <mxCell id="85" value="Node" style="text;html=1;align=center;verticalAlign=middle;resizable=0;points=[];autosize=1;strokeColor=none;fillColor=none;fontFamily=JetBrains Mono;fontColor=default;fontStyle=1;labelBackgroundColor=none;" parent="1" vertex="1">
                    <mxGeometry x="45" y="920" width="50" height="30" as="geometry"/>
                </mxCell>
                <mxCell id="93" value="" style="rounded=0;whiteSpace=wrap;html=1;labelBackgroundColor=none;fontFamily=JetBrains Mono;fontSource=https%3A%2F%2Ffonts.googleapis.com%2Fcss%3Ffamily%3DJetBrains%2BMono;fillColor=#408bff;strokeColor=#02003e;fontColor=#f5f5fb;" parent="1" vertex="1">
                    <mxGeometry x="480" y="639" width="40" height="120" as="geometry"/>
                </mxCell>
                <mxCell id="94" value="" style="rounded=0;whiteSpace=wrap;html=1;labelBackgroundColor=none;fontFamily=JetBrains Mono;fontSource=https%3A%2F%2Ffonts.googleapis.com%2Fcss%3Ffamily%3DJetBrains%2BMono;fillColor=#408bff;strokeColor=#02003e;fontColor=#f5f5fb;" parent="1" vertex="1">
                    <mxGeometry x="520" y="669" width="40" height="90" as="geometry"/>
                </mxCell>
                <mxCell id="95" value="" style="rounded=0;whiteSpace=wrap;html=1;labelBackgroundColor=none;fontFamily=JetBrains Mono;fontSource=https%3A%2F%2Ffonts.googleapis.com%2Fcss%3Ffamily%3DJetBrains%2BMono;fillColor=#408bff;strokeColor=#02003e;fontColor=#f5f5fb;" parent="1" vertex="1">
                    <mxGeometry x="560" y="599" width="40" height="160" as="geometry"/>
                </mxCell>
                <mxCell id="96" value="" style="rounded=0;whiteSpace=wrap;html=1;labelBackgroundColor=none;fontFamily=JetBrains Mono;fontSource=https%3A%2F%2Ffonts.googleapis.com%2Fcss%3Ffamily%3DJetBrains%2BMono;fillColor=#408bff;strokeColor=#02003e;fontColor=#f5f5fb;" parent="1" vertex="1">
                    <mxGeometry x="600" y="649" width="40" height="110" as="geometry"/>
                </mxCell>
                <mxCell id="97" value="" style="rounded=0;whiteSpace=wrap;html=1;labelBackgroundColor=none;fontFamily=JetBrains Mono;fontSource=https%3A%2F%2Ffonts.googleapis.com%2Fcss%3Ffamily%3DJetBrains%2BMono;fillColor=#408bff;strokeColor=#02003e;fontColor=#f5f5fb;" parent="1" vertex="1">
                    <mxGeometry x="640" y="679" width="40" height="80" as="geometry"/>
                </mxCell>
                <mxCell id="53" value="" style="endArrow=none;dashed=1;html=1;fontFamily=JetBrains Mono;fontSource=https%3A%2F%2Ffonts.googleapis.com%2Fcss%3Ffamily%3DJetBrains%2BMono;fontColor=#000000;fontStyle=1;strokeWidth=3;strokeColor=#e51601;" parent="1" edge="1">
                    <mxGeometry width="50" height="50" relative="1" as="geometry">
                        <mxPoint x="460" y="719" as="sourcePoint"/>
                        <mxPoint x="740" y="719" as="targetPoint"/>
                    </mxGeometry>
                </mxCell>
                <mxCell id="100" value="" style="rounded=0;whiteSpace=wrap;html=1;labelBackgroundColor=none;fontFamily=JetBrains Mono;fontSource=https%3A%2F%2Ffonts.googleapis.com%2Fcss%3Ffamily%3DJetBrains%2BMono;fillColor=#408bff;strokeColor=#02003e;fontColor=#f5f5fb;" parent="1" vertex="1">
                    <mxGeometry x="480" y="1265" width="20" height="20" as="geometry"/>
                </mxCell>
                <mxCell id="101" value="- VM1 CPU Load" style="text;html=1;align=left;verticalAlign=middle;resizable=0;points=[];autosize=1;strokeColor=none;fillColor=none;fontFamily=JetBrains Mono;fontColor=default;labelBackgroundColor=none;fontSource=https%3A%2F%2Ffonts.googleapis.com%2Fcss%3Ffamily%3DJetBrains%2BMono;opacity=60;" parent="1" vertex="1">
                    <mxGeometry x="510" y="1260" width="120" height="30" as="geometry"/>
                </mxCell>
                <mxCell id="103" value="VM1" style="text;html=1;align=center;verticalAlign=middle;resizable=0;points=[];autosize=1;strokeColor=none;fillColor=none;fontFamily=JetBrains Mono;fontColor=#FFFFFF;fontStyle=1" parent="1" vertex="1">
                    <mxGeometry x="50" y="480" width="50" height="30" as="geometry"/>
                </mxCell>
                <mxCell id="104" value="VM1" style="text;html=1;align=center;verticalAlign=middle;resizable=0;points=[];autosize=1;strokeColor=none;fillColor=none;fontFamily=JetBrains Mono;fontColor=#FFFFFF;fontStyle=1" parent="1" vertex="1">
                    <mxGeometry x="50" y="960" width="50" height="30" as="geometry"/>
                </mxCell>
                <mxCell id="105" value="" style="rounded=0;whiteSpace=wrap;html=1;labelBackgroundColor=none;fontFamily=JetBrains Mono;fontSource=https%3A%2F%2Ffonts.googleapis.com%2Fcss%3Ffamily%3DJetBrains%2BMono;fillColor=#408bff;strokeColor=#02003e;fontColor=#f5f5fb;direction=west;" parent="1" vertex="1">
                    <mxGeometry x="480" y="1198.75" width="40" height="40" as="geometry"/>
                </mxCell>
                <mxCell id="106" value="" style="rounded=0;whiteSpace=wrap;html=1;labelBackgroundColor=none;fontFamily=JetBrains Mono;fontSource=https%3A%2F%2Ffonts.googleapis.com%2Fcss%3Ffamily%3DJetBrains%2BMono;fillColor=#408bff;strokeColor=#02003e;fontColor=#f5f5fb;" parent="1" vertex="1">
                    <mxGeometry x="520" y="1178.75" width="40" height="60" as="geometry"/>
                </mxCell>
                <mxCell id="107" value="" style="rounded=0;whiteSpace=wrap;html=1;labelBackgroundColor=none;fontFamily=JetBrains Mono;fontSource=https%3A%2F%2Ffonts.googleapis.com%2Fcss%3Ffamily%3DJetBrains%2BMono;fillColor=#408bff;strokeColor=#02003e;fontColor=#f5f5fb;direction=south;" parent="1" vertex="1">
                    <mxGeometry x="560" y="1198.75" width="40" height="40" as="geometry"/>
                </mxCell>
                <mxCell id="108" value="" style="rounded=0;whiteSpace=wrap;html=1;labelBackgroundColor=none;fontFamily=JetBrains Mono;fontSource=https%3A%2F%2Ffonts.googleapis.com%2Fcss%3Ffamily%3DJetBrains%2BMono;fillColor=#408bff;strokeColor=#02003e;fontColor=#f5f5fb;direction=west;" parent="1" vertex="1">
                    <mxGeometry x="600" y="1198.75" width="40" height="40" as="geometry"/>
                </mxCell>
                <mxCell id="109" value="" style="rounded=0;whiteSpace=wrap;html=1;labelBackgroundColor=none;fontFamily=JetBrains Mono;fontSource=https%3A%2F%2Ffonts.googleapis.com%2Fcss%3Ffamily%3DJetBrains%2BMono;fillColor=#408bff;strokeColor=#02003e;fontColor=#f5f5fb;" parent="1" vertex="1">
                    <mxGeometry x="640" y="1198.75" width="40" height="40" as="geometry"/>
                </mxCell>
                <mxCell id="113" value="" style="rounded=0;whiteSpace=wrap;html=1;labelBackgroundColor=none;fontFamily=JetBrains Mono;fontSource=https%3A%2F%2Ffonts.googleapis.com%2Fcss%3Ffamily%3DJetBrains%2BMono;fillColor=#da47ff;strokeColor=#02003e;fontColor=#f5f5fb;direction=west;" parent="1" vertex="1">
                    <mxGeometry x="480" y="1080" width="40" height="118.75" as="geometry"/>
                </mxCell>
                <mxCell id="114" value="" style="rounded=0;whiteSpace=wrap;html=1;labelBackgroundColor=none;fontFamily=JetBrains Mono;fontSource=https%3A%2F%2Ffonts.googleapis.com%2Fcss%3Ffamily%3DJetBrains%2BMono;fillColor=#da47ff;strokeColor=#02003e;fontColor=#f5f5fb;direction=west;" parent="1" vertex="1">
                    <mxGeometry x="520" y="1080" width="40" height="98.75" as="geometry"/>
                </mxCell>
                <mxCell id="115" value="" style="rounded=0;whiteSpace=wrap;html=1;labelBackgroundColor=none;fontFamily=JetBrains Mono;fontSource=https%3A%2F%2Ffonts.googleapis.com%2Fcss%3Ffamily%3DJetBrains%2BMono;fillColor=#da47ff;strokeColor=#02003e;fontColor=#f5f5fb;direction=west;" parent="1" vertex="1">
                    <mxGeometry x="560" y="1080" width="40" height="120" as="geometry"/>
                </mxCell>
                <mxCell id="116" value="" style="rounded=0;whiteSpace=wrap;html=1;labelBackgroundColor=none;fontFamily=JetBrains Mono;fontSource=https%3A%2F%2Ffonts.googleapis.com%2Fcss%3Ffamily%3DJetBrains%2BMono;fillColor=#da47ff;strokeColor=#02003e;fontColor=#f5f5fb;direction=west;" parent="1" vertex="1">
                    <mxGeometry x="600" y="1080" width="40" height="118.75" as="geometry"/>
                </mxCell>
                <mxCell id="117" value="" style="rounded=0;whiteSpace=wrap;html=1;labelBackgroundColor=none;fontFamily=JetBrains Mono;fontSource=https%3A%2F%2Ffonts.googleapis.com%2Fcss%3Ffamily%3DJetBrains%2BMono;fillColor=#da47ff;strokeColor=#02003e;fontColor=#f5f5fb;direction=west;" parent="1" vertex="1">
                    <mxGeometry x="640" y="1080" width="40" height="118.75" as="geometry"/>
                </mxCell>
                <mxCell id="118" value="" style="rounded=0;whiteSpace=wrap;html=1;labelBackgroundColor=none;fontFamily=JetBrains Mono;fontSource=https%3A%2F%2Ffonts.googleapis.com%2Fcss%3Ffamily%3DJetBrains%2BMono;fillColor=#da47ff;strokeColor=#02003e;fontColor=#f5f5fb;" parent="1" vertex="1">
                    <mxGeometry x="480" y="1300" width="20" height="20" as="geometry"/>
                </mxCell>
                <mxCell id="119" value="- VM2 CPU Load" style="text;html=1;align=left;verticalAlign=middle;resizable=0;points=[];autosize=1;strokeColor=none;fillColor=none;fontFamily=JetBrains Mono;fontColor=default;labelBackgroundColor=none;fontSource=https%3A%2F%2Ffonts.googleapis.com%2Fcss%3Ffamily%3DJetBrains%2BMono;opacity=60;" parent="1" vertex="1">
                    <mxGeometry x="510" y="1295" width="120" height="30" as="geometry"/>
                </mxCell>
                <mxCell id="120" value="" style="rounded=1;whiteSpace=wrap;html=1;arcSize=5;strokeWidth=2;fontFamily=JetBrains Mono;fontSource=https%3A%2F%2Ffonts.googleapis.com%2Fcss%3Ffamily%3DJetBrains%2BMono;fillColor=#da47ff;fontColor=#f5f5fb;strokeColor=#da47ff;fontStyle=1" parent="1" vertex="1">
                    <mxGeometry x="230" y="960" width="160" height="200" as="geometry"/>
                </mxCell>
                <mxCell id="122" value="vCPU" style="rounded=0;whiteSpace=wrap;html=1;labelBackgroundColor=none;fontFamily=JetBrains Mono;fontSource=https%3A%2F%2Ffonts.googleapis.com%2Fcss%3Ffamily%3DJetBrains%2BMono;fillColor=#cdd1e6;strokeColor=#cdd1e6;" parent="1" vertex="1">
                    <mxGeometry x="290" y="1080" width="40" height="40" as="geometry"/>
                </mxCell>
                <mxCell id="123" value="spec:&lt;br&gt;&amp;nbsp; cores: 1&lt;br&gt;&amp;nbsp; coreFraction: 80%" style="text;html=1;align=left;verticalAlign=middle;resizable=0;points=[];autosize=1;strokeColor=none;fillColor=none;fontFamily=JetBrains Mono;fontColor=#FFFFFF;fontStyle=1" parent="1" vertex="1">
                    <mxGeometry x="230" y="990" width="160" height="60" as="geometry"/>
                </mxCell>
                <mxCell id="124" value="VM2" style="text;html=1;align=center;verticalAlign=middle;resizable=0;points=[];autosize=1;strokeColor=none;fillColor=none;fontFamily=JetBrains Mono;fontColor=#FFFFFF;fontStyle=1" parent="1" vertex="1">
                    <mxGeometry x="230" y="960" width="50" height="30" as="geometry"/>
                </mxCell>
                <mxCell id="121" style="edgeStyle=orthogonalEdgeStyle;html=1;exitX=0.5;exitY=1;exitDx=0;exitDy=0;entryX=0.5;entryY=0;entryDx=0;entryDy=0;strokeWidth=1;fontFamily=JetBrains Mono;fontSource=https%3A%2F%2Ffonts.googleapis.com%2Fcss%3Ffamily%3DJetBrains%2BMono;fontColor=default;endArrow=none;endFill=0;spacing=1;" parent="1" source="122" target="84" edge="1">
                    <mxGeometry relative="1" as="geometry">
                        <Array as="points">
                            <mxPoint x="310" y="1170"/>
                            <mxPoint x="220" y="1170"/>
                        </Array>
                    </mxGeometry>
                </mxCell>
                <mxCell id="75" value="" style="endArrow=none;dashed=1;html=1;fontFamily=JetBrains Mono;fontSource=https%3A%2F%2Ffonts.googleapis.com%2Fcss%3Ffamily%3DJetBrains%2BMono;fontColor=#000000;fontStyle=1;strokeWidth=3;strokeColor=#e51601;" parent="1" edge="1">
                    <mxGeometry width="50" height="50" relative="1" as="geometry">
                        <mxPoint x="460" y="1198.75" as="sourcePoint"/>
                        <mxPoint x="740" y="1198.75" as="targetPoint"/>
                    </mxGeometry>
                </mxCell>
                <mxCell id="126" value="" style="rounded=0;whiteSpace=wrap;html=1;labelBackgroundColor=none;fontFamily=JetBrains Mono;fontSource=https%3A%2F%2Ffonts.googleapis.com%2Fcss%3Ffamily%3DJetBrains%2BMono;fontColor=#f5f5fb;fillColor=#408bff;strokeColor=#408bff;opacity=50;" parent="1" vertex="1">
                    <mxGeometry x="200" y="730" width="40" height="10" as="geometry"/>
                </mxCell>
                <mxCell id="127" value="" style="rounded=0;whiteSpace=wrap;html=1;labelBackgroundColor=none;fontFamily=JetBrains Mono;fontSource=https%3A%2F%2Ffonts.googleapis.com%2Fcss%3Ffamily%3DJetBrains%2BMono;fontColor=#f5f5fb;fillColor=#408bff;strokeColor=#408bff;opacity=50;" parent="1" vertex="1">
                    <mxGeometry x="200" y="1210" width="40" height="10" as="geometry"/>
                </mxCell>
                <mxCell id="128" value="" style="rounded=0;whiteSpace=wrap;html=1;labelBackgroundColor=none;fontFamily=JetBrains Mono;fontSource=https%3A%2F%2Ffonts.googleapis.com%2Fcss%3Ffamily%3DJetBrains%2BMono;fontColor=#f5f5fb;fillColor=#da47ff;strokeColor=#da47ff;opacity=50;" parent="1" vertex="1">
                    <mxGeometry x="200" y="1180" width="40" height="30" as="geometry"/>
                </mxCell>
                <mxCell id="130" value="" style="endArrow=classic;html=1;fontFamily=JetBrains Mono;fontSource=https%3A%2F%2Ffonts.googleapis.com%2Fcss%3Ffamily%3DJetBrains%2BMono;fontColor=#FFFFFF;" parent="1" edge="1">
                    <mxGeometry width="50" height="50" relative="1" as="geometry">
                        <mxPoint x="480" y="1037.75" as="sourcePoint"/>
                        <mxPoint x="720" y="1037.75" as="targetPoint"/>
                    </mxGeometry>
                </mxCell>
                <mxCell id="131" value="" style="endArrow=classic;html=1;fontFamily=JetBrains Mono;fontSource=https%3A%2F%2Ffonts.googleapis.com%2Fcss%3Ffamily%3DJetBrains%2BMono;fontColor=#FFFFFF;" parent="1" edge="1">
                    <mxGeometry width="50" height="50" relative="1" as="geometry">
                        <mxPoint x="480" y="1037.75" as="sourcePoint"/>
                        <mxPoint x="480" y="858.75" as="targetPoint"/>
                    </mxGeometry>
                </mxCell>
                <mxCell id="132" value="&lt;font color=&quot;#000000&quot;&gt;t&lt;/font&gt;" style="text;html=1;strokeColor=none;fillColor=none;align=center;verticalAlign=middle;whiteSpace=wrap;rounded=0;labelBackgroundColor=none;fontFamily=JetBrains Mono;fontSource=https%3A%2F%2Ffonts.googleapis.com%2Fcss%3Ffamily%3DJetBrains%2BMono;fontColor=#FFFFFF;" parent="1" vertex="1">
                    <mxGeometry x="680" y="1007.75" width="60" height="30" as="geometry"/>
                </mxCell>
                <mxCell id="133" value="&lt;font color=&quot;#000000&quot;&gt;CPU load&lt;/font&gt;" style="text;html=1;strokeColor=none;fillColor=none;align=left;verticalAlign=middle;whiteSpace=wrap;rounded=0;labelBackgroundColor=none;fontFamily=JetBrains Mono;fontSource=https%3A%2F%2Ffonts.googleapis.com%2Fcss%3Ffamily%3DJetBrains%2BMono;fontColor=#FFFFFF;" parent="1" vertex="1">
                    <mxGeometry x="490" y="847.75" width="60" height="30" as="geometry"/>
                </mxCell>
                <mxCell id="134" value="" style="rounded=0;whiteSpace=wrap;html=1;labelBackgroundColor=none;fontFamily=JetBrains Mono;fontSource=https%3A%2F%2Ffonts.googleapis.com%2Fcss%3Ffamily%3DJetBrains%2BMono;fillColor=#408bff;strokeColor=#02003e;fontColor=#f5f5fb;" parent="1" vertex="1">
                    <mxGeometry x="480" y="917.75" width="40" height="120" as="geometry"/>
                </mxCell>
                <mxCell id="135" value="" style="rounded=0;whiteSpace=wrap;html=1;labelBackgroundColor=none;fontFamily=JetBrains Mono;fontSource=https%3A%2F%2Ffonts.googleapis.com%2Fcss%3Ffamily%3DJetBrains%2BMono;fillColor=#408bff;strokeColor=#02003e;fontColor=#f5f5fb;" parent="1" vertex="1">
                    <mxGeometry x="520" y="947.75" width="40" height="90" as="geometry"/>
                </mxCell>
                <mxCell id="136" value="" style="rounded=0;whiteSpace=wrap;html=1;labelBackgroundColor=none;fontFamily=JetBrains Mono;fontSource=https%3A%2F%2Ffonts.googleapis.com%2Fcss%3Ffamily%3DJetBrains%2BMono;fillColor=#408bff;strokeColor=#02003e;fontColor=#f5f5fb;" parent="1" vertex="1">
                    <mxGeometry x="560" y="888.75" width="40" height="149" as="geometry"/>
                </mxCell>
                <mxCell id="137" value="" style="rounded=0;whiteSpace=wrap;html=1;labelBackgroundColor=none;fontFamily=JetBrains Mono;fontSource=https%3A%2F%2Ffonts.googleapis.com%2Fcss%3Ffamily%3DJetBrains%2BMono;fillColor=#408bff;strokeColor=#02003e;fontColor=#f5f5fb;" parent="1" vertex="1">
                    <mxGeometry x="600" y="927.75" width="40" height="110" as="geometry"/>
                </mxCell>
                <mxCell id="138" value="" style="rounded=0;whiteSpace=wrap;html=1;labelBackgroundColor=none;fontFamily=JetBrains Mono;fontSource=https%3A%2F%2Ffonts.googleapis.com%2Fcss%3Ffamily%3DJetBrains%2BMono;fillColor=#408bff;strokeColor=#02003e;fontColor=#f5f5fb;" parent="1" vertex="1">
                    <mxGeometry x="640" y="957.75" width="40" height="80" as="geometry"/>
                </mxCell>
                <mxCell id="139" value="" style="endArrow=none;dashed=1;html=1;fontFamily=JetBrains Mono;fontSource=https%3A%2F%2Ffonts.googleapis.com%2Fcss%3Ffamily%3DJetBrains%2BMono;fontColor=#000000;fontStyle=1;strokeWidth=3;strokeColor=#e51601;" parent="1" edge="1">
                    <mxGeometry width="50" height="50" relative="1" as="geometry">
                        <mxPoint x="460" y="997.75" as="sourcePoint"/>
                        <mxPoint x="740" y="997.75" as="targetPoint"/>
                    </mxGeometry>
                </mxCell>
                <mxCell id="140" value="&lt;font color=&quot;#000000&quot;&gt;Guaranteed VM1 (20%)&lt;/font&gt;" style="text;html=1;strokeColor=none;fillColor=none;align=left;verticalAlign=middle;whiteSpace=wrap;rounded=0;labelBackgroundColor=none;fontFamily=JetBrains Mono;fontSource=https%3A%2F%2Ffonts.googleapis.com%2Fcss%3Ffamily%3DJetBrains%2BMono;fontColor=#FFFFFF;" parent="1" vertex="1">
                    <mxGeometry x="690" y="967.75" width="80" height="30" as="geometry"/>
                </mxCell>
                <mxCell id="144" value="&lt;font color=&quot;#000000&quot;&gt;100%&lt;/font&gt;" style="text;html=1;strokeColor=none;fillColor=none;align=left;verticalAlign=middle;whiteSpace=wrap;rounded=0;labelBackgroundColor=none;fontFamily=JetBrains Mono;fontSource=https%3A%2F%2Ffonts.googleapis.com%2Fcss%3Ffamily%3DJetBrains%2BMono;fontColor=#FFFFFF;" parent="1" vertex="1">
                    <mxGeometry x="440" y="599" width="40" height="21" as="geometry"/>
                </mxCell>
                <mxCell id="145" value="" style="endArrow=none;html=1;strokeWidth=2;" parent="1" edge="1">
                    <mxGeometry width="50" height="50" relative="1" as="geometry">
                        <mxPoint x="470" y="600" as="sourcePoint"/>
                        <mxPoint x="490" y="600" as="targetPoint"/>
                    </mxGeometry>
                </mxCell>
                <mxCell id="146" value="&lt;font color=&quot;#000000&quot;&gt;100%&lt;/font&gt;" style="text;html=1;strokeColor=none;fillColor=none;align=left;verticalAlign=middle;whiteSpace=wrap;rounded=0;labelBackgroundColor=none;fontFamily=JetBrains Mono;fontSource=https%3A%2F%2Ffonts.googleapis.com%2Fcss%3Ffamily%3DJetBrains%2BMono;fontColor=#FFFFFF;" parent="1" vertex="1">
                    <mxGeometry x="440" y="878.75" width="40" height="21" as="geometry"/>
                </mxCell>
                <mxCell id="147" value="" style="endArrow=none;html=1;strokeWidth=2;" parent="1" edge="1">
                    <mxGeometry width="50" height="50" relative="1" as="geometry">
                        <mxPoint x="470" y="879.75" as="sourcePoint"/>
                        <mxPoint x="490" y="879.75" as="targetPoint"/>
                    </mxGeometry>
                </mxCell>
                <mxCell id="148" value="&lt;font color=&quot;#000000&quot;&gt;100%&lt;/font&gt;" style="text;html=1;strokeColor=none;fillColor=none;align=left;verticalAlign=middle;whiteSpace=wrap;rounded=0;labelBackgroundColor=none;fontFamily=JetBrains Mono;fontSource=https%3A%2F%2Ffonts.googleapis.com%2Fcss%3Ffamily%3DJetBrains%2BMono;fontColor=#FFFFFF;" parent="1" vertex="1">
                    <mxGeometry x="440" y="1078.75" width="40" height="21" as="geometry"/>
                </mxCell>
                <mxCell id="149" value="" style="endArrow=none;html=1;strokeWidth=2;" parent="1" edge="1">
                    <mxGeometry width="50" height="50" relative="1" as="geometry">
                        <mxPoint x="470" y="1079.75" as="sourcePoint"/>
                        <mxPoint x="490" y="1079.75" as="targetPoint"/>
                    </mxGeometry>
                </mxCell>
                <mxCell id="150" value="" style="rounded=0;whiteSpace=wrap;html=1;labelBackgroundColor=none;fontFamily=JetBrains Mono;fontSource=https%3A%2F%2Ffonts.googleapis.com%2Fcss%3Ffamily%3DJetBrains%2BMono;fillColor=#da47ff;strokeColor=#02003e;fontColor=#f5f5fb;direction=west;" parent="1" vertex="1">
                    <mxGeometry x="480" y="898.75" width="40" height="19" as="geometry"/>
                </mxCell>
                <mxCell id="151" value="" style="rounded=0;whiteSpace=wrap;html=1;labelBackgroundColor=none;fontFamily=JetBrains Mono;fontSource=https%3A%2F%2Ffonts.googleapis.com%2Fcss%3Ffamily%3DJetBrains%2BMono;fillColor=#da47ff;strokeColor=#02003e;fontColor=#f5f5fb;direction=west;" parent="1" vertex="1">
                    <mxGeometry x="520" y="918.75" width="40" height="30" as="geometry"/>
                </mxCell>
                <mxCell id="152" value="" style="rounded=0;whiteSpace=wrap;html=1;labelBackgroundColor=none;fontFamily=JetBrains Mono;fontSource=https%3A%2F%2Ffonts.googleapis.com%2Fcss%3Ffamily%3DJetBrains%2BMono;fillColor=#da47ff;strokeColor=#02003e;fontColor=#f5f5fb;direction=west;" parent="1" vertex="1">
                    <mxGeometry x="600" y="908.75" width="40" height="19" as="geometry"/>
                </mxCell>
                <mxCell id="153" value="" style="rounded=0;whiteSpace=wrap;html=1;labelBackgroundColor=none;fontFamily=JetBrains Mono;fontSource=https%3A%2F%2Ffonts.googleapis.com%2Fcss%3Ffamily%3DJetBrains%2BMono;fillColor=#da47ff;strokeColor=#02003e;fontColor=#f5f5fb;direction=west;" parent="1" vertex="1">
                    <mxGeometry x="560" y="880" width="40" height="8.75" as="geometry"/>
                </mxCell>
                <mxCell id="154" value="" style="rounded=0;whiteSpace=wrap;html=1;labelBackgroundColor=none;fontFamily=JetBrains Mono;fontSource=https%3A%2F%2Ffonts.googleapis.com%2Fcss%3Ffamily%3DJetBrains%2BMono;fillColor=#da47ff;strokeColor=#02003e;fontColor=#f5f5fb;direction=west;" parent="1" vertex="1">
                    <mxGeometry x="640" y="918.75" width="40" height="40" as="geometry"/>
                </mxCell>
                <mxCell id="155" value="&lt;font color=&quot;#000000&quot;&gt;Guaranteed VM1 (20%)&lt;/font&gt;" style="text;html=1;strokeColor=none;fillColor=none;align=left;verticalAlign=middle;whiteSpace=wrap;rounded=0;labelBackgroundColor=none;fontFamily=JetBrains Mono;fontSource=https%3A%2F%2Ffonts.googleapis.com%2Fcss%3Ffamily%3DJetBrains%2BMono;fontColor=#FFFFFF;" parent="1" vertex="1">
                    <mxGeometry x="690" y="1168.75" width="80" height="30" as="geometry"/>
                </mxCell>
                <mxCell id="156" value="&lt;font color=&quot;#000000&quot;&gt;Guaranteed VM1 (20%)&lt;/font&gt;" style="text;html=1;strokeColor=none;fillColor=none;align=left;verticalAlign=middle;whiteSpace=wrap;rounded=0;labelBackgroundColor=none;fontFamily=JetBrains Mono;fontSource=https%3A%2F%2Ffonts.googleapis.com%2Fcss%3Ffamily%3DJetBrains%2BMono;fontColor=#FFFFFF;" parent="1" vertex="1">
                    <mxGeometry x="690" y="689" width="80" height="30" as="geometry"/>
                </mxCell>
                <mxCell id="158" value="&lt;span style=&quot;font-weight: normal;&quot;&gt;capacity: &lt;/span&gt;&lt;font style=&quot;&quot;&gt;1cpu&lt;/font&gt;&lt;br&gt;&lt;span style=&quot;font-weight: normal;&quot;&gt;available for scheduling: &lt;/span&gt;&lt;font color=&quot;#ff3333&quot; style=&quot;&quot;&gt;0cpu&lt;/font&gt;" style="text;html=1;strokeColor=none;fillColor=none;align=left;verticalAlign=middle;whiteSpace=wrap;rounded=0;labelBackgroundColor=none;fontFamily=JetBrains Mono;fontSource=https%3A%2F%2Ffonts.googleapis.com%2Fcss%3Ffamily%3DJetBrains%2BMono;fontColor=default;fontStyle=1;" vertex="1" parent="1">
                    <mxGeometry x="50" y="1220" width="230" height="30" as="geometry"/>
                </mxCell>
            </root>
        </mxGraphModel>
    </diagram>
    <diagram name="Copy of corefraction" id="OhcCLrrgN-X3wTLMejVQ">
        <mxGraphModel dx="1466" dy="692" grid="1" gridSize="10" guides="1" tooltips="1" connect="1" arrows="1" fold="1" page="1" pageScale="1" pageWidth="690" pageHeight="980" math="0" shadow="0">
            <root>
                <mxCell id="4wfMH2dMaKSs76k5KO5--0"/>
                <mxCell id="4wfMH2dMaKSs76k5KO5--1" parent="4wfMH2dMaKSs76k5KO5--0"/>
                <mxCell id="4wfMH2dMaKSs76k5KO5--2" value="" style="rounded=1;whiteSpace=wrap;html=1;arcSize=5;strokeWidth=2;fontFamily=JetBrains Mono;fontSource=https%3A%2F%2Ffonts.googleapis.com%2Fcss%3Ffamily%3DJetBrains%2BMono;fillColor=#e7e9f5;strokeColor=#e7e9f5;fontStyle=1" vertex="1" parent="4wfMH2dMaKSs76k5KO5--1">
                    <mxGeometry x="40" y="80" width="360" height="340" as="geometry"/>
                </mxCell>
                <mxCell id="4wfMH2dMaKSs76k5KO5--3" value="" style="rounded=1;whiteSpace=wrap;html=1;arcSize=5;strokeWidth=2;fontFamily=JetBrains Mono;fontSource=https%3A%2F%2Ffonts.googleapis.com%2Fcss%3Ffamily%3DJetBrains%2BMono;fillColor=#408bff;fontColor=#f5f5fb;strokeColor=#408bff;fontStyle=1" vertex="1" parent="4wfMH2dMaKSs76k5KO5--1">
                    <mxGeometry x="50" y="120" width="160" height="200" as="geometry"/>
                </mxCell>
                <mxCell id="4wfMH2dMaKSs76k5KO5--4" value="VM1" style="text;html=1;align=center;verticalAlign=middle;resizable=0;points=[];autosize=1;strokeColor=none;fillColor=none;fontFamily=JetBrains Mono;fontColor=#FFFFFF;fontStyle=1" vertex="1" parent="4wfMH2dMaKSs76k5KO5--1">
                    <mxGeometry x="45" y="120" width="50" height="30" as="geometry"/>
                </mxCell>
                <mxCell id="4wfMH2dMaKSs76k5KO5--5" value="vCPU" style="rounded=0;whiteSpace=wrap;html=1;labelBackgroundColor=none;fontFamily=JetBrains Mono;fontSource=https%3A%2F%2Ffonts.googleapis.com%2Fcss%3Ffamily%3DJetBrains%2BMono;fillColor=#cdd1e6;strokeColor=#cdd1e6;" vertex="1" parent="4wfMH2dMaKSs76k5KO5--1">
                    <mxGeometry x="110" y="240" width="40" height="40" as="geometry"/>
                </mxCell>
                <mxCell id="4wfMH2dMaKSs76k5KO5--6" value="spec:&lt;br&gt;&amp;nbsp; cores: 1&lt;br&gt;&amp;nbsp; coreFraction: 100%" style="text;html=1;align=left;verticalAlign=middle;resizable=0;points=[];autosize=1;strokeColor=none;fillColor=none;fontFamily=JetBrains Mono;fontColor=#FFFFFF;fontStyle=1" vertex="1" parent="4wfMH2dMaKSs76k5KO5--1">
                    <mxGeometry x="50" y="150" width="170" height="60" as="geometry"/>
                </mxCell>
                <mxCell id="4wfMH2dMaKSs76k5KO5--7" value="pCPU" style="rounded=0;whiteSpace=wrap;html=1;labelBackgroundColor=none;fontFamily=JetBrains Mono;fontSource=https%3A%2F%2Ffonts.googleapis.com%2Fcss%3Ffamily%3DJetBrains%2BMono;fillColor=#cdd1e6;strokeColor=#cdd1e6;" vertex="1" parent="4wfMH2dMaKSs76k5KO5--1">
                    <mxGeometry x="200" y="340" width="40" height="40" as="geometry"/>
                </mxCell>
                <mxCell id="4wfMH2dMaKSs76k5KO5--8" value="" style="endArrow=classic;html=1;fontFamily=JetBrains Mono;fontSource=https%3A%2F%2Ffonts.googleapis.com%2Fcss%3Ffamily%3DJetBrains%2BMono;fontColor=#FFFFFF;" edge="1" parent="4wfMH2dMaKSs76k5KO5--1">
                    <mxGeometry width="50" height="50" relative="1" as="geometry">
                        <mxPoint x="480" y="399" as="sourcePoint"/>
                        <mxPoint x="720" y="399" as="targetPoint"/>
                        <Array as="points">
                            <mxPoint x="520" y="399"/>
                        </Array>
                    </mxGeometry>
                </mxCell>
                <mxCell id="4wfMH2dMaKSs76k5KO5--9" value="" style="endArrow=classic;html=1;fontFamily=JetBrains Mono;fontSource=https%3A%2F%2Ffonts.googleapis.com%2Fcss%3Ffamily%3DJetBrains%2BMono;fontColor=#FFFFFF;" edge="1" parent="4wfMH2dMaKSs76k5KO5--1">
                    <mxGeometry width="50" height="50" relative="1" as="geometry">
                        <mxPoint x="480" y="399" as="sourcePoint"/>
                        <mxPoint x="480" y="220" as="targetPoint"/>
                    </mxGeometry>
                </mxCell>
                <mxCell id="4wfMH2dMaKSs76k5KO5--10" value="&lt;font color=&quot;#000000&quot;&gt;t&lt;/font&gt;" style="text;html=1;strokeColor=none;fillColor=none;align=center;verticalAlign=middle;whiteSpace=wrap;rounded=0;labelBackgroundColor=none;fontFamily=JetBrains Mono;fontSource=https%3A%2F%2Ffonts.googleapis.com%2Fcss%3Ffamily%3DJetBrains%2BMono;fontColor=#FFFFFF;" vertex="1" parent="4wfMH2dMaKSs76k5KO5--1">
                    <mxGeometry x="680" y="369" width="60" height="30" as="geometry"/>
                </mxCell>
                <mxCell id="4wfMH2dMaKSs76k5KO5--11" value="&lt;font color=&quot;#000000&quot;&gt;CPU load&lt;/font&gt;" style="text;html=1;strokeColor=none;fillColor=none;align=left;verticalAlign=middle;whiteSpace=wrap;rounded=0;labelBackgroundColor=none;fontFamily=JetBrains Mono;fontSource=https%3A%2F%2Ffonts.googleapis.com%2Fcss%3Ffamily%3DJetBrains%2BMono;fontColor=#FFFFFF;" vertex="1" parent="4wfMH2dMaKSs76k5KO5--1">
                    <mxGeometry x="490" y="209" width="60" height="30" as="geometry"/>
                </mxCell>
                <mxCell id="4wfMH2dMaKSs76k5KO5--12" value="" style="endArrow=classic;html=1;fontFamily=JetBrains Mono;fontSource=https%3A%2F%2Ffonts.googleapis.com%2Fcss%3Ffamily%3DJetBrains%2BMono;fontColor=#FFFFFF;" edge="1" parent="4wfMH2dMaKSs76k5KO5--1">
                    <mxGeometry width="50" height="50" relative="1" as="geometry">
                        <mxPoint x="480" y="759" as="sourcePoint"/>
                        <mxPoint x="720" y="759" as="targetPoint"/>
                    </mxGeometry>
                </mxCell>
                <mxCell id="4wfMH2dMaKSs76k5KO5--13" value="" style="endArrow=classic;html=1;fontFamily=JetBrains Mono;fontSource=https%3A%2F%2Ffonts.googleapis.com%2Fcss%3Ffamily%3DJetBrains%2BMono;fontColor=#FFFFFF;" edge="1" parent="4wfMH2dMaKSs76k5KO5--1">
                    <mxGeometry width="50" height="50" relative="1" as="geometry">
                        <mxPoint x="480" y="759" as="sourcePoint"/>
                        <mxPoint x="480" y="579" as="targetPoint"/>
                    </mxGeometry>
                </mxCell>
                <mxCell id="4wfMH2dMaKSs76k5KO5--14" value="&lt;font color=&quot;#000000&quot;&gt;t&lt;/font&gt;" style="text;html=1;strokeColor=none;fillColor=none;align=center;verticalAlign=middle;whiteSpace=wrap;rounded=0;labelBackgroundColor=none;fontFamily=JetBrains Mono;fontSource=https%3A%2F%2Ffonts.googleapis.com%2Fcss%3Ffamily%3DJetBrains%2BMono;fontColor=#FFFFFF;" vertex="1" parent="4wfMH2dMaKSs76k5KO5--1">
                    <mxGeometry x="680" y="729" width="60" height="30" as="geometry"/>
                </mxCell>
                <mxCell id="4wfMH2dMaKSs76k5KO5--15" value="&lt;font color=&quot;#000000&quot;&gt;CPU load&lt;/font&gt;" style="text;html=1;strokeColor=none;fillColor=none;align=left;verticalAlign=middle;whiteSpace=wrap;rounded=0;labelBackgroundColor=none;fontFamily=JetBrains Mono;fontSource=https%3A%2F%2Ffonts.googleapis.com%2Fcss%3Ffamily%3DJetBrains%2BMono;fontColor=#FFFFFF;" vertex="1" parent="4wfMH2dMaKSs76k5KO5--1">
                    <mxGeometry x="490" y="569" width="60" height="30" as="geometry"/>
                </mxCell>
                <mxCell id="4wfMH2dMaKSs76k5KO5--16" value="Node" style="text;html=1;align=center;verticalAlign=middle;resizable=0;points=[];autosize=1;strokeColor=none;fillColor=none;fontFamily=JetBrains Mono;fontColor=default;fontStyle=1;labelBackgroundColor=none;" vertex="1" parent="4wfMH2dMaKSs76k5KO5--1">
                    <mxGeometry x="45" y="80" width="50" height="30" as="geometry"/>
                </mxCell>
                <mxCell id="4wfMH2dMaKSs76k5KO5--17" value="" style="rounded=1;whiteSpace=wrap;html=1;arcSize=5;strokeWidth=2;fontFamily=JetBrains Mono;fontSource=https%3A%2F%2Ffonts.googleapis.com%2Fcss%3Ffamily%3DJetBrains%2BMono;fillColor=#e7e9f5;strokeColor=#e7e9f5;fontStyle=1" vertex="1" parent="4wfMH2dMaKSs76k5KO5--1">
                    <mxGeometry x="40" y="440" width="360" height="340" as="geometry"/>
                </mxCell>
                <mxCell id="4wfMH2dMaKSs76k5KO5--18" value="" style="rounded=1;whiteSpace=wrap;html=1;arcSize=5;strokeWidth=2;fontFamily=JetBrains Mono;fontSource=https%3A%2F%2Ffonts.googleapis.com%2Fcss%3Ffamily%3DJetBrains%2BMono;fillColor=#408bff;fontColor=#f5f5fb;strokeColor=#408bff;fontStyle=1" vertex="1" parent="4wfMH2dMaKSs76k5KO5--1">
                    <mxGeometry x="50" y="480" width="160" height="200" as="geometry"/>
                </mxCell>
                <mxCell id="4wfMH2dMaKSs76k5KO5--19" value="vCPU" style="rounded=0;whiteSpace=wrap;html=1;labelBackgroundColor=none;fontFamily=JetBrains Mono;fontSource=https%3A%2F%2Ffonts.googleapis.com%2Fcss%3Ffamily%3DJetBrains%2BMono;fillColor=#cdd1e6;strokeColor=#cdd1e6;" vertex="1" parent="4wfMH2dMaKSs76k5KO5--1">
                    <mxGeometry x="110" y="600" width="40" height="40" as="geometry"/>
                </mxCell>
                <mxCell id="4wfMH2dMaKSs76k5KO5--20" value="spec:&lt;br&gt;&amp;nbsp; cores: 1&lt;br&gt;&amp;nbsp; coreFraction: 20%" style="text;html=1;align=left;verticalAlign=middle;resizable=0;points=[];autosize=1;strokeColor=none;fillColor=none;fontFamily=JetBrains Mono;fontColor=#FFFFFF;fontStyle=1" vertex="1" parent="4wfMH2dMaKSs76k5KO5--1">
                    <mxGeometry x="50" y="510" width="160" height="60" as="geometry"/>
                </mxCell>
                <mxCell id="4wfMH2dMaKSs76k5KO5--21" style="edgeStyle=orthogonalEdgeStyle;html=1;exitX=0.5;exitY=0;exitDx=0;exitDy=0;fontFamily=JetBrains Mono;fontSource=https%3A%2F%2Ffonts.googleapis.com%2Fcss%3Ffamily%3DJetBrains%2BMono;fontColor=#FFFFFF;endArrow=none;endFill=0;" edge="1" parent="4wfMH2dMaKSs76k5KO5--1" source="4wfMH2dMaKSs76k5KO5--22" target="4wfMH2dMaKSs76k5KO5--19">
                    <mxGeometry relative="1" as="geometry">
                        <Array as="points">
                            <mxPoint x="220" y="690"/>
                            <mxPoint x="130" y="690"/>
                        </Array>
                    </mxGeometry>
                </mxCell>
                <mxCell id="4wfMH2dMaKSs76k5KO5--22" value="pCPU" style="rounded=0;whiteSpace=wrap;html=1;labelBackgroundColor=none;fontFamily=JetBrains Mono;fontSource=https%3A%2F%2Ffonts.googleapis.com%2Fcss%3Ffamily%3DJetBrains%2BMono;fillColor=#cdd1e6;strokeColor=#cdd1e6;" vertex="1" parent="4wfMH2dMaKSs76k5KO5--1">
                    <mxGeometry x="200" y="700" width="40" height="40" as="geometry"/>
                </mxCell>
                <mxCell id="4wfMH2dMaKSs76k5KO5--23" value="Node" style="text;html=1;align=center;verticalAlign=middle;resizable=0;points=[];autosize=1;strokeColor=none;fillColor=none;fontFamily=JetBrains Mono;fontColor=default;fontStyle=1;labelBackgroundColor=none;" vertex="1" parent="4wfMH2dMaKSs76k5KO5--1">
                    <mxGeometry x="45" y="440" width="50" height="30" as="geometry"/>
                </mxCell>
                <mxCell id="4wfMH2dMaKSs76k5KO5--24" value="&lt;span style=&quot;font-weight: normal;&quot;&gt;capacity: &lt;/span&gt;&lt;font style=&quot;&quot;&gt;1cpu&lt;/font&gt;&lt;br&gt;&lt;span style=&quot;font-weight: normal;&quot;&gt;available for scheduling: &lt;/span&gt;&lt;font color=&quot;#ff3333&quot; style=&quot;&quot;&gt;0cpu&lt;/font&gt;" style="text;html=1;strokeColor=none;fillColor=none;align=left;verticalAlign=middle;whiteSpace=wrap;rounded=0;labelBackgroundColor=none;fontFamily=JetBrains Mono;fontSource=https%3A%2F%2Ffonts.googleapis.com%2Fcss%3Ffamily%3DJetBrains%2BMono;fontColor=default;fontStyle=1;" vertex="1" parent="4wfMH2dMaKSs76k5KO5--1">
                    <mxGeometry x="50" y="380" width="230" height="30" as="geometry"/>
                </mxCell>
                <mxCell id="4wfMH2dMaKSs76k5KO5--25" value="capacity: &lt;font&gt;&lt;b&gt;1cpu&lt;/b&gt;&lt;/font&gt;&lt;br&gt;available for scheduling:&amp;nbsp;&lt;font&gt;&lt;b&gt;0.8cpu&lt;/b&gt;&lt;/font&gt;" style="text;html=1;strokeColor=none;fillColor=none;align=left;verticalAlign=middle;whiteSpace=wrap;rounded=0;labelBackgroundColor=none;fontFamily=JetBrains Mono;fontSource=https%3A%2F%2Ffonts.googleapis.com%2Fcss%3Ffamily%3DJetBrains%2BMono;fontColor=default;fontStyle=0;" vertex="1" parent="4wfMH2dMaKSs76k5KO5--1">
                    <mxGeometry x="55" y="740" width="265" height="30" as="geometry"/>
                </mxCell>
                <mxCell id="4wfMH2dMaKSs76k5KO5--26" value="" style="endArrow=classic;html=1;fontFamily=JetBrains Mono;fontSource=https%3A%2F%2Ffonts.googleapis.com%2Fcss%3Ffamily%3DJetBrains%2BMono;fontColor=#FFFFFF;" edge="1" parent="4wfMH2dMaKSs76k5KO5--1">
                    <mxGeometry width="50" height="50" relative="1" as="geometry">
                        <mxPoint x="480" y="1238.75" as="sourcePoint"/>
                        <mxPoint x="720" y="1238.75" as="targetPoint"/>
                    </mxGeometry>
                </mxCell>
                <mxCell id="4wfMH2dMaKSs76k5KO5--27" value="" style="endArrow=classic;html=1;fontFamily=JetBrains Mono;fontSource=https%3A%2F%2Ffonts.googleapis.com%2Fcss%3Ffamily%3DJetBrains%2BMono;fontColor=#FFFFFF;" edge="1" parent="4wfMH2dMaKSs76k5KO5--1">
                    <mxGeometry width="50" height="50" relative="1" as="geometry">
                        <mxPoint x="480" y="1238.75" as="sourcePoint"/>
                        <mxPoint x="480" y="1058.75" as="targetPoint"/>
                    </mxGeometry>
                </mxCell>
                <mxCell id="4wfMH2dMaKSs76k5KO5--28" value="&lt;font color=&quot;#000000&quot;&gt;t&lt;/font&gt;" style="text;html=1;strokeColor=none;fillColor=none;align=center;verticalAlign=middle;whiteSpace=wrap;rounded=0;labelBackgroundColor=none;fontFamily=JetBrains Mono;fontSource=https%3A%2F%2Ffonts.googleapis.com%2Fcss%3Ffamily%3DJetBrains%2BMono;fontColor=#FFFFFF;" vertex="1" parent="4wfMH2dMaKSs76k5KO5--1">
                    <mxGeometry x="680" y="1208.75" width="60" height="30" as="geometry"/>
                </mxCell>
                <mxCell id="4wfMH2dMaKSs76k5KO5--29" value="&lt;font color=&quot;#000000&quot;&gt;CPU load&lt;/font&gt;" style="text;html=1;strokeColor=none;fillColor=none;align=left;verticalAlign=middle;whiteSpace=wrap;rounded=0;labelBackgroundColor=none;fontFamily=JetBrains Mono;fontSource=https%3A%2F%2Ffonts.googleapis.com%2Fcss%3Ffamily%3DJetBrains%2BMono;fontColor=#FFFFFF;" vertex="1" parent="4wfMH2dMaKSs76k5KO5--1">
                    <mxGeometry x="490" y="1048.75" width="60" height="30" as="geometry"/>
                </mxCell>
                <mxCell id="4wfMH2dMaKSs76k5KO5--30" value="" style="rounded=1;whiteSpace=wrap;html=1;arcSize=5;strokeWidth=2;fontFamily=JetBrains Mono;fontSource=https%3A%2F%2Ffonts.googleapis.com%2Fcss%3Ffamily%3DJetBrains%2BMono;fillColor=#e7e9f5;strokeColor=#e7e9f5;fontStyle=1" vertex="1" parent="4wfMH2dMaKSs76k5KO5--1">
                    <mxGeometry x="40" y="920" width="360" height="340" as="geometry"/>
                </mxCell>
                <mxCell id="4wfMH2dMaKSs76k5KO5--31" value="" style="rounded=1;whiteSpace=wrap;html=1;arcSize=5;strokeWidth=2;fontFamily=JetBrains Mono;fontSource=https%3A%2F%2Ffonts.googleapis.com%2Fcss%3Ffamily%3DJetBrains%2BMono;fillColor=#408bff;fontColor=#f5f5fb;strokeColor=#408bff;fontStyle=1" vertex="1" parent="4wfMH2dMaKSs76k5KO5--1">
                    <mxGeometry x="50" y="960" width="160" height="200" as="geometry"/>
                </mxCell>
                <mxCell id="4wfMH2dMaKSs76k5KO5--32" value="vCPU" style="rounded=0;whiteSpace=wrap;html=1;labelBackgroundColor=none;fontFamily=JetBrains Mono;fontSource=https%3A%2F%2Ffonts.googleapis.com%2Fcss%3Ffamily%3DJetBrains%2BMono;fillColor=#cdd1e6;strokeColor=#cdd1e6;" vertex="1" parent="4wfMH2dMaKSs76k5KO5--1">
                    <mxGeometry x="110" y="1080" width="40" height="40" as="geometry"/>
                </mxCell>
                <mxCell id="4wfMH2dMaKSs76k5KO5--33" value="spec:&lt;br&gt;&amp;nbsp; cores: 1&lt;br&gt;&amp;nbsp; coreFraction: 20%" style="text;html=1;align=left;verticalAlign=middle;resizable=0;points=[];autosize=1;strokeColor=none;fillColor=none;fontFamily=JetBrains Mono;fontColor=#FFFFFF;fontStyle=1" vertex="1" parent="4wfMH2dMaKSs76k5KO5--1">
                    <mxGeometry x="50" y="990" width="160" height="60" as="geometry"/>
                </mxCell>
                <mxCell id="4wfMH2dMaKSs76k5KO5--34" style="edgeStyle=orthogonalEdgeStyle;html=1;exitX=0.5;exitY=0;exitDx=0;exitDy=0;fontFamily=JetBrains Mono;fontSource=https%3A%2F%2Ffonts.googleapis.com%2Fcss%3Ffamily%3DJetBrains%2BMono;fontColor=#FFFFFF;endArrow=none;endFill=0;" edge="1" parent="4wfMH2dMaKSs76k5KO5--1" source="4wfMH2dMaKSs76k5KO5--35" target="4wfMH2dMaKSs76k5KO5--32">
                    <mxGeometry relative="1" as="geometry">
                        <Array as="points">
                            <mxPoint x="220" y="1170"/>
                            <mxPoint x="130" y="1170"/>
                        </Array>
                    </mxGeometry>
                </mxCell>
                <mxCell id="4wfMH2dMaKSs76k5KO5--35" value="pCPU" style="rounded=0;whiteSpace=wrap;html=1;labelBackgroundColor=none;fontFamily=JetBrains Mono;fontSource=https%3A%2F%2Ffonts.googleapis.com%2Fcss%3Ffamily%3DJetBrains%2BMono;fillColor=#cdd1e6;strokeColor=#cdd1e6;" vertex="1" parent="4wfMH2dMaKSs76k5KO5--1">
                    <mxGeometry x="200" y="1180" width="40" height="40" as="geometry"/>
                </mxCell>
                <mxCell id="4wfMH2dMaKSs76k5KO5--36" value="Node" style="text;html=1;align=center;verticalAlign=middle;resizable=0;points=[];autosize=1;strokeColor=none;fillColor=none;fontFamily=JetBrains Mono;fontColor=default;fontStyle=1;labelBackgroundColor=none;" vertex="1" parent="4wfMH2dMaKSs76k5KO5--1">
                    <mxGeometry x="45" y="920" width="50" height="30" as="geometry"/>
                </mxCell>
                <mxCell id="4wfMH2dMaKSs76k5KO5--37" value="" style="rounded=0;whiteSpace=wrap;html=1;labelBackgroundColor=none;fontFamily=JetBrains Mono;fontSource=https%3A%2F%2Ffonts.googleapis.com%2Fcss%3Ffamily%3DJetBrains%2BMono;fillColor=#408bff;strokeColor=#02003e;fontColor=#f5f5fb;" vertex="1" parent="4wfMH2dMaKSs76k5KO5--1">
                    <mxGeometry x="480" y="279" width="40" height="120" as="geometry"/>
                </mxCell>
                <mxCell id="4wfMH2dMaKSs76k5KO5--38" value="" style="rounded=0;whiteSpace=wrap;html=1;labelBackgroundColor=none;fontFamily=JetBrains Mono;fontSource=https%3A%2F%2Ffonts.googleapis.com%2Fcss%3Ffamily%3DJetBrains%2BMono;fillColor=#408bff;strokeColor=#02003e;fontColor=#f5f5fb;" vertex="1" parent="4wfMH2dMaKSs76k5KO5--1">
                    <mxGeometry x="520" y="309" width="40" height="90" as="geometry"/>
                </mxCell>
                <mxCell id="4wfMH2dMaKSs76k5KO5--39" value="" style="rounded=0;whiteSpace=wrap;html=1;labelBackgroundColor=none;fontFamily=JetBrains Mono;fontSource=https%3A%2F%2Ffonts.googleapis.com%2Fcss%3Ffamily%3DJetBrains%2BMono;fillColor=#408bff;strokeColor=#02003e;fontColor=#f5f5fb;" vertex="1" parent="4wfMH2dMaKSs76k5KO5--1">
                    <mxGeometry x="560" y="240" width="40" height="159" as="geometry"/>
                </mxCell>
                <mxCell id="4wfMH2dMaKSs76k5KO5--40" value="" style="rounded=0;whiteSpace=wrap;html=1;labelBackgroundColor=none;fontFamily=JetBrains Mono;fontSource=https%3A%2F%2Ffonts.googleapis.com%2Fcss%3Ffamily%3DJetBrains%2BMono;fillColor=#408bff;strokeColor=#02003e;fontColor=#f5f5fb;" vertex="1" parent="4wfMH2dMaKSs76k5KO5--1">
                    <mxGeometry x="600" y="289" width="40" height="110" as="geometry"/>
                </mxCell>
                <mxCell id="4wfMH2dMaKSs76k5KO5--41" value="" style="rounded=0;whiteSpace=wrap;html=1;labelBackgroundColor=none;fontFamily=JetBrains Mono;fontSource=https%3A%2F%2Ffonts.googleapis.com%2Fcss%3Ffamily%3DJetBrains%2BMono;fillColor=#408bff;strokeColor=#02003e;fontColor=#f5f5fb;" vertex="1" parent="4wfMH2dMaKSs76k5KO5--1">
                    <mxGeometry x="640" y="319" width="40" height="80" as="geometry"/>
                </mxCell>
                <mxCell id="4wfMH2dMaKSs76k5KO5--42" value="" style="rounded=0;whiteSpace=wrap;html=1;labelBackgroundColor=none;fontFamily=JetBrains Mono;fontSource=https%3A%2F%2Ffonts.googleapis.com%2Fcss%3Ffamily%3DJetBrains%2BMono;fillColor=#408bff;strokeColor=#02003e;fontColor=#f5f5fb;" vertex="1" parent="4wfMH2dMaKSs76k5KO5--1">
                    <mxGeometry x="480" y="639" width="40" height="120" as="geometry"/>
                </mxCell>
                <mxCell id="4wfMH2dMaKSs76k5KO5--43" value="" style="rounded=0;whiteSpace=wrap;html=1;labelBackgroundColor=none;fontFamily=JetBrains Mono;fontSource=https%3A%2F%2Ffonts.googleapis.com%2Fcss%3Ffamily%3DJetBrains%2BMono;fillColor=#408bff;strokeColor=#02003e;fontColor=#f5f5fb;" vertex="1" parent="4wfMH2dMaKSs76k5KO5--1">
                    <mxGeometry x="520" y="669" width="40" height="90" as="geometry"/>
                </mxCell>
                <mxCell id="4wfMH2dMaKSs76k5KO5--44" value="" style="rounded=0;whiteSpace=wrap;html=1;labelBackgroundColor=none;fontFamily=JetBrains Mono;fontSource=https%3A%2F%2Ffonts.googleapis.com%2Fcss%3Ffamily%3DJetBrains%2BMono;fillColor=#408bff;strokeColor=#02003e;fontColor=#f5f5fb;" vertex="1" parent="4wfMH2dMaKSs76k5KO5--1">
                    <mxGeometry x="560" y="599" width="40" height="160" as="geometry"/>
                </mxCell>
                <mxCell id="4wfMH2dMaKSs76k5KO5--45" value="" style="rounded=0;whiteSpace=wrap;html=1;labelBackgroundColor=none;fontFamily=JetBrains Mono;fontSource=https%3A%2F%2Ffonts.googleapis.com%2Fcss%3Ffamily%3DJetBrains%2BMono;fillColor=#408bff;strokeColor=#02003e;fontColor=#f5f5fb;" vertex="1" parent="4wfMH2dMaKSs76k5KO5--1">
                    <mxGeometry x="600" y="649" width="40" height="110" as="geometry"/>
                </mxCell>
                <mxCell id="4wfMH2dMaKSs76k5KO5--46" value="" style="rounded=0;whiteSpace=wrap;html=1;labelBackgroundColor=none;fontFamily=JetBrains Mono;fontSource=https%3A%2F%2Ffonts.googleapis.com%2Fcss%3Ffamily%3DJetBrains%2BMono;fillColor=#408bff;strokeColor=#02003e;fontColor=#f5f5fb;" vertex="1" parent="4wfMH2dMaKSs76k5KO5--1">
                    <mxGeometry x="640" y="679" width="40" height="80" as="geometry"/>
                </mxCell>
                <mxCell id="4wfMH2dMaKSs76k5KO5--47" value="" style="endArrow=none;dashed=1;html=1;fontFamily=JetBrains Mono;fontSource=https%3A%2F%2Ffonts.googleapis.com%2Fcss%3Ffamily%3DJetBrains%2BMono;fontColor=#000000;fontStyle=1;strokeWidth=3;strokeColor=#e51601;" edge="1" parent="4wfMH2dMaKSs76k5KO5--1">
                    <mxGeometry width="50" height="50" relative="1" as="geometry">
                        <mxPoint x="460" y="719" as="sourcePoint"/>
                        <mxPoint x="740" y="719" as="targetPoint"/>
                    </mxGeometry>
                </mxCell>
                <mxCell id="4wfMH2dMaKSs76k5KO5--48" value="" style="rounded=0;whiteSpace=wrap;html=1;labelBackgroundColor=none;fontFamily=JetBrains Mono;fontSource=https%3A%2F%2Ffonts.googleapis.com%2Fcss%3Ffamily%3DJetBrains%2BMono;fillColor=#408bff;strokeColor=#02003e;fontColor=#f5f5fb;" vertex="1" parent="4wfMH2dMaKSs76k5KO5--1">
                    <mxGeometry x="480" y="1265" width="20" height="20" as="geometry"/>
                </mxCell>
                <mxCell id="4wfMH2dMaKSs76k5KO5--49" value="- VM1 CPU Load" style="text;html=1;align=left;verticalAlign=middle;resizable=0;points=[];autosize=1;strokeColor=none;fillColor=none;fontFamily=JetBrains Mono;fontColor=default;labelBackgroundColor=none;fontSource=https%3A%2F%2Ffonts.googleapis.com%2Fcss%3Ffamily%3DJetBrains%2BMono;opacity=60;" vertex="1" parent="4wfMH2dMaKSs76k5KO5--1">
                    <mxGeometry x="510" y="1260" width="120" height="30" as="geometry"/>
                </mxCell>
                <mxCell id="4wfMH2dMaKSs76k5KO5--50" value="VM1" style="text;html=1;align=center;verticalAlign=middle;resizable=0;points=[];autosize=1;strokeColor=none;fillColor=none;fontFamily=JetBrains Mono;fontColor=#FFFFFF;fontStyle=1" vertex="1" parent="4wfMH2dMaKSs76k5KO5--1">
                    <mxGeometry x="50" y="480" width="50" height="30" as="geometry"/>
                </mxCell>
                <mxCell id="4wfMH2dMaKSs76k5KO5--51" value="VM1" style="text;html=1;align=center;verticalAlign=middle;resizable=0;points=[];autosize=1;strokeColor=none;fillColor=none;fontFamily=JetBrains Mono;fontColor=#FFFFFF;fontStyle=1" vertex="1" parent="4wfMH2dMaKSs76k5KO5--1">
                    <mxGeometry x="50" y="960" width="50" height="30" as="geometry"/>
                </mxCell>
                <mxCell id="4wfMH2dMaKSs76k5KO5--52" value="" style="rounded=0;whiteSpace=wrap;html=1;labelBackgroundColor=none;fontFamily=JetBrains Mono;fontSource=https%3A%2F%2Ffonts.googleapis.com%2Fcss%3Ffamily%3DJetBrains%2BMono;fillColor=#408bff;strokeColor=#02003e;fontColor=#f5f5fb;direction=west;" vertex="1" parent="4wfMH2dMaKSs76k5KO5--1">
                    <mxGeometry x="480" y="1198.75" width="40" height="40" as="geometry"/>
                </mxCell>
                <mxCell id="4wfMH2dMaKSs76k5KO5--53" value="" style="rounded=0;whiteSpace=wrap;html=1;labelBackgroundColor=none;fontFamily=JetBrains Mono;fontSource=https%3A%2F%2Ffonts.googleapis.com%2Fcss%3Ffamily%3DJetBrains%2BMono;fillColor=#408bff;strokeColor=#02003e;fontColor=#f5f5fb;" vertex="1" parent="4wfMH2dMaKSs76k5KO5--1">
                    <mxGeometry x="520" y="1178.75" width="40" height="60" as="geometry"/>
                </mxCell>
                <mxCell id="4wfMH2dMaKSs76k5KO5--54" value="" style="rounded=0;whiteSpace=wrap;html=1;labelBackgroundColor=none;fontFamily=JetBrains Mono;fontSource=https%3A%2F%2Ffonts.googleapis.com%2Fcss%3Ffamily%3DJetBrains%2BMono;fillColor=#408bff;strokeColor=#02003e;fontColor=#f5f5fb;direction=south;" vertex="1" parent="4wfMH2dMaKSs76k5KO5--1">
                    <mxGeometry x="560" y="1198.75" width="40" height="40" as="geometry"/>
                </mxCell>
                <mxCell id="4wfMH2dMaKSs76k5KO5--55" value="" style="rounded=0;whiteSpace=wrap;html=1;labelBackgroundColor=none;fontFamily=JetBrains Mono;fontSource=https%3A%2F%2Ffonts.googleapis.com%2Fcss%3Ffamily%3DJetBrains%2BMono;fillColor=#408bff;strokeColor=#02003e;fontColor=#f5f5fb;direction=west;" vertex="1" parent="4wfMH2dMaKSs76k5KO5--1">
                    <mxGeometry x="600" y="1198.75" width="40" height="40" as="geometry"/>
                </mxCell>
                <mxCell id="4wfMH2dMaKSs76k5KO5--56" value="" style="rounded=0;whiteSpace=wrap;html=1;labelBackgroundColor=none;fontFamily=JetBrains Mono;fontSource=https%3A%2F%2Ffonts.googleapis.com%2Fcss%3Ffamily%3DJetBrains%2BMono;fillColor=#408bff;strokeColor=#02003e;fontColor=#f5f5fb;" vertex="1" parent="4wfMH2dMaKSs76k5KO5--1">
                    <mxGeometry x="640" y="1198.75" width="40" height="40" as="geometry"/>
                </mxCell>
                <mxCell id="4wfMH2dMaKSs76k5KO5--57" value="&lt;font color=&quot;#000000&quot;&gt;100%&lt;/font&gt;" style="text;html=1;strokeColor=none;fillColor=none;align=left;verticalAlign=middle;whiteSpace=wrap;rounded=0;labelBackgroundColor=none;fontFamily=JetBrains Mono;fontSource=https%3A%2F%2Ffonts.googleapis.com%2Fcss%3Ffamily%3DJetBrains%2BMono;fontColor=#FFFFFF;" vertex="1" parent="4wfMH2dMaKSs76k5KO5--1">
                    <mxGeometry x="440" y="239" width="40" height="21" as="geometry"/>
                </mxCell>
                <mxCell id="4wfMH2dMaKSs76k5KO5--58" value="" style="rounded=0;whiteSpace=wrap;html=1;labelBackgroundColor=none;fontFamily=JetBrains Mono;fontSource=https%3A%2F%2Ffonts.googleapis.com%2Fcss%3Ffamily%3DJetBrains%2BMono;fillColor=#da47ff;strokeColor=#02003e;fontColor=#f5f5fb;direction=west;" vertex="1" parent="4wfMH2dMaKSs76k5KO5--1">
                    <mxGeometry x="480" y="1080" width="40" height="118.75" as="geometry"/>
                </mxCell>
                <mxCell id="4wfMH2dMaKSs76k5KO5--59" value="" style="rounded=0;whiteSpace=wrap;html=1;labelBackgroundColor=none;fontFamily=JetBrains Mono;fontSource=https%3A%2F%2Ffonts.googleapis.com%2Fcss%3Ffamily%3DJetBrains%2BMono;fillColor=#da47ff;strokeColor=#02003e;fontColor=#f5f5fb;direction=west;" vertex="1" parent="4wfMH2dMaKSs76k5KO5--1">
                    <mxGeometry x="520" y="1080" width="40" height="98.75" as="geometry"/>
                </mxCell>
                <mxCell id="4wfMH2dMaKSs76k5KO5--60" value="" style="rounded=0;whiteSpace=wrap;html=1;labelBackgroundColor=none;fontFamily=JetBrains Mono;fontSource=https%3A%2F%2Ffonts.googleapis.com%2Fcss%3Ffamily%3DJetBrains%2BMono;fillColor=#da47ff;strokeColor=#02003e;fontColor=#f5f5fb;direction=west;" vertex="1" parent="4wfMH2dMaKSs76k5KO5--1">
                    <mxGeometry x="560" y="1080" width="40" height="120" as="geometry"/>
                </mxCell>
                <mxCell id="4wfMH2dMaKSs76k5KO5--61" value="" style="rounded=0;whiteSpace=wrap;html=1;labelBackgroundColor=none;fontFamily=JetBrains Mono;fontSource=https%3A%2F%2Ffonts.googleapis.com%2Fcss%3Ffamily%3DJetBrains%2BMono;fillColor=#da47ff;strokeColor=#02003e;fontColor=#f5f5fb;direction=west;" vertex="1" parent="4wfMH2dMaKSs76k5KO5--1">
                    <mxGeometry x="600" y="1080" width="40" height="118.75" as="geometry"/>
                </mxCell>
                <mxCell id="4wfMH2dMaKSs76k5KO5--62" value="" style="rounded=0;whiteSpace=wrap;html=1;labelBackgroundColor=none;fontFamily=JetBrains Mono;fontSource=https%3A%2F%2Ffonts.googleapis.com%2Fcss%3Ffamily%3DJetBrains%2BMono;fillColor=#da47ff;strokeColor=#02003e;fontColor=#f5f5fb;direction=west;" vertex="1" parent="4wfMH2dMaKSs76k5KO5--1">
                    <mxGeometry x="640" y="1080" width="40" height="118.75" as="geometry"/>
                </mxCell>
                <mxCell id="4wfMH2dMaKSs76k5KO5--63" value="" style="rounded=0;whiteSpace=wrap;html=1;labelBackgroundColor=none;fontFamily=JetBrains Mono;fontSource=https%3A%2F%2Ffonts.googleapis.com%2Fcss%3Ffamily%3DJetBrains%2BMono;fillColor=#da47ff;strokeColor=#02003e;fontColor=#f5f5fb;" vertex="1" parent="4wfMH2dMaKSs76k5KO5--1">
                    <mxGeometry x="480" y="1300" width="20" height="20" as="geometry"/>
                </mxCell>
                <mxCell id="4wfMH2dMaKSs76k5KO5--64" value="- VM2 CPU Load" style="text;html=1;align=left;verticalAlign=middle;resizable=0;points=[];autosize=1;strokeColor=none;fillColor=none;fontFamily=JetBrains Mono;fontColor=default;labelBackgroundColor=none;fontSource=https%3A%2F%2Ffonts.googleapis.com%2Fcss%3Ffamily%3DJetBrains%2BMono;opacity=60;" vertex="1" parent="4wfMH2dMaKSs76k5KO5--1">
                    <mxGeometry x="510" y="1295" width="120" height="30" as="geometry"/>
                </mxCell>
                <mxCell id="4wfMH2dMaKSs76k5KO5--65" value="" style="rounded=1;whiteSpace=wrap;html=1;arcSize=5;strokeWidth=2;fontFamily=JetBrains Mono;fontSource=https%3A%2F%2Ffonts.googleapis.com%2Fcss%3Ffamily%3DJetBrains%2BMono;fillColor=#da47ff;fontColor=#f5f5fb;strokeColor=#da47ff;fontStyle=1" vertex="1" parent="4wfMH2dMaKSs76k5KO5--1">
                    <mxGeometry x="230" y="960" width="160" height="200" as="geometry"/>
                </mxCell>
                <mxCell id="4wfMH2dMaKSs76k5KO5--66" value="vCPU" style="rounded=0;whiteSpace=wrap;html=1;labelBackgroundColor=none;fontFamily=JetBrains Mono;fontSource=https%3A%2F%2Ffonts.googleapis.com%2Fcss%3Ffamily%3DJetBrains%2BMono;fillColor=#cdd1e6;strokeColor=#cdd1e6;" vertex="1" parent="4wfMH2dMaKSs76k5KO5--1">
                    <mxGeometry x="290" y="1080" width="40" height="40" as="geometry"/>
                </mxCell>
                <mxCell id="4wfMH2dMaKSs76k5KO5--67" value="spec:&lt;br&gt;&amp;nbsp; cores: 1&lt;br&gt;&amp;nbsp; coreFraction: 80%" style="text;html=1;align=left;verticalAlign=middle;resizable=0;points=[];autosize=1;strokeColor=none;fillColor=none;fontFamily=JetBrains Mono;fontColor=#FFFFFF;fontStyle=1" vertex="1" parent="4wfMH2dMaKSs76k5KO5--1">
                    <mxGeometry x="230" y="990" width="160" height="60" as="geometry"/>
                </mxCell>
                <mxCell id="4wfMH2dMaKSs76k5KO5--68" value="VM2" style="text;html=1;align=center;verticalAlign=middle;resizable=0;points=[];autosize=1;strokeColor=none;fillColor=none;fontFamily=JetBrains Mono;fontColor=#FFFFFF;fontStyle=1" vertex="1" parent="4wfMH2dMaKSs76k5KO5--1">
                    <mxGeometry x="230" y="960" width="50" height="30" as="geometry"/>
                </mxCell>
                <mxCell id="4wfMH2dMaKSs76k5KO5--69" style="edgeStyle=orthogonalEdgeStyle;html=1;exitX=0.5;exitY=1;exitDx=0;exitDy=0;entryX=0.5;entryY=0;entryDx=0;entryDy=0;strokeWidth=1;fontFamily=JetBrains Mono;fontSource=https%3A%2F%2Ffonts.googleapis.com%2Fcss%3Ffamily%3DJetBrains%2BMono;fontColor=default;endArrow=none;endFill=0;spacing=1;" edge="1" parent="4wfMH2dMaKSs76k5KO5--1" source="4wfMH2dMaKSs76k5KO5--66" target="4wfMH2dMaKSs76k5KO5--35">
                    <mxGeometry relative="1" as="geometry">
                        <Array as="points">
                            <mxPoint x="310" y="1170"/>
                            <mxPoint x="220" y="1170"/>
                        </Array>
                    </mxGeometry>
                </mxCell>
                <mxCell id="4wfMH2dMaKSs76k5KO5--70" style="edgeStyle=orthogonalEdgeStyle;html=1;exitX=0.5;exitY=0;exitDx=0;exitDy=0;fontFamily=JetBrains Mono;fontSource=https%3A%2F%2Ffonts.googleapis.com%2Fcss%3Ffamily%3DJetBrains%2BMono;fontColor=#FFFFFF;endArrow=none;endFill=0;" edge="1" parent="4wfMH2dMaKSs76k5KO5--1" source="4wfMH2dMaKSs76k5KO5--7" target="4wfMH2dMaKSs76k5KO5--5">
                    <mxGeometry relative="1" as="geometry">
                        <Array as="points">
                            <mxPoint x="220" y="330"/>
                            <mxPoint x="130" y="330"/>
                        </Array>
                    </mxGeometry>
                </mxCell>
                <mxCell id="4wfMH2dMaKSs76k5KO5--71" value="" style="endArrow=none;dashed=1;html=1;fontFamily=JetBrains Mono;fontSource=https%3A%2F%2Ffonts.googleapis.com%2Fcss%3Ffamily%3DJetBrains%2BMono;fontColor=#000000;fontStyle=1;strokeWidth=3;strokeColor=#e51601;" edge="1" parent="4wfMH2dMaKSs76k5KO5--1">
                    <mxGeometry width="50" height="50" relative="1" as="geometry">
                        <mxPoint x="460" y="1198.75" as="sourcePoint"/>
                        <mxPoint x="740" y="1198.75" as="targetPoint"/>
                    </mxGeometry>
                </mxCell>
                <mxCell id="4wfMH2dMaKSs76k5KO5--72" value="" style="rounded=0;whiteSpace=wrap;html=1;labelBackgroundColor=none;fontFamily=JetBrains Mono;fontSource=https%3A%2F%2Ffonts.googleapis.com%2Fcss%3Ffamily%3DJetBrains%2BMono;fontColor=#f5f5fb;fillColor=#408bff;strokeColor=#408bff;opacity=50;" vertex="1" parent="4wfMH2dMaKSs76k5KO5--1">
                    <mxGeometry x="200" y="730" width="40" height="10" as="geometry"/>
                </mxCell>
                <mxCell id="4wfMH2dMaKSs76k5KO5--73" value="" style="rounded=0;whiteSpace=wrap;html=1;labelBackgroundColor=none;fontFamily=JetBrains Mono;fontSource=https%3A%2F%2Ffonts.googleapis.com%2Fcss%3Ffamily%3DJetBrains%2BMono;fontColor=#f5f5fb;fillColor=#408bff;strokeColor=#408bff;opacity=50;" vertex="1" parent="4wfMH2dMaKSs76k5KO5--1">
                    <mxGeometry x="200" y="1210" width="40" height="10" as="geometry"/>
                </mxCell>
                <mxCell id="4wfMH2dMaKSs76k5KO5--74" value="" style="rounded=0;whiteSpace=wrap;html=1;labelBackgroundColor=none;fontFamily=JetBrains Mono;fontSource=https%3A%2F%2Ffonts.googleapis.com%2Fcss%3Ffamily%3DJetBrains%2BMono;fontColor=#f5f5fb;fillColor=#da47ff;strokeColor=#da47ff;opacity=50;" vertex="1" parent="4wfMH2dMaKSs76k5KO5--1">
                    <mxGeometry x="200" y="1180" width="40" height="30" as="geometry"/>
                </mxCell>
                <mxCell id="4wfMH2dMaKSs76k5KO5--75" value="" style="rounded=0;whiteSpace=wrap;html=1;labelBackgroundColor=none;fontFamily=JetBrains Mono;fontSource=https%3A%2F%2Ffonts.googleapis.com%2Fcss%3Ffamily%3DJetBrains%2BMono;fillColor=#408bff;strokeColor=#408bff;fontColor=#f5f5fb;opacity=50;" vertex="1" parent="4wfMH2dMaKSs76k5KO5--1">
                    <mxGeometry x="200" y="340" width="40" height="40" as="geometry"/>
                </mxCell>
                <mxCell id="4wfMH2dMaKSs76k5KO5--76" value="" style="endArrow=classic;html=1;fontFamily=JetBrains Mono;fontSource=https%3A%2F%2Ffonts.googleapis.com%2Fcss%3Ffamily%3DJetBrains%2BMono;fontColor=#FFFFFF;" edge="1" parent="4wfMH2dMaKSs76k5KO5--1">
                    <mxGeometry width="50" height="50" relative="1" as="geometry">
                        <mxPoint x="480" y="1037.75" as="sourcePoint"/>
                        <mxPoint x="720" y="1037.75" as="targetPoint"/>
                    </mxGeometry>
                </mxCell>
                <mxCell id="4wfMH2dMaKSs76k5KO5--77" value="" style="endArrow=classic;html=1;fontFamily=JetBrains Mono;fontSource=https%3A%2F%2Ffonts.googleapis.com%2Fcss%3Ffamily%3DJetBrains%2BMono;fontColor=#FFFFFF;" edge="1" parent="4wfMH2dMaKSs76k5KO5--1">
                    <mxGeometry width="50" height="50" relative="1" as="geometry">
                        <mxPoint x="480" y="1037.75" as="sourcePoint"/>
                        <mxPoint x="480" y="858.75" as="targetPoint"/>
                    </mxGeometry>
                </mxCell>
                <mxCell id="4wfMH2dMaKSs76k5KO5--78" value="&lt;font color=&quot;#000000&quot;&gt;t&lt;/font&gt;" style="text;html=1;strokeColor=none;fillColor=none;align=center;verticalAlign=middle;whiteSpace=wrap;rounded=0;labelBackgroundColor=none;fontFamily=JetBrains Mono;fontSource=https%3A%2F%2Ffonts.googleapis.com%2Fcss%3Ffamily%3DJetBrains%2BMono;fontColor=#FFFFFF;" vertex="1" parent="4wfMH2dMaKSs76k5KO5--1">
                    <mxGeometry x="680" y="1007.75" width="60" height="30" as="geometry"/>
                </mxCell>
                <mxCell id="4wfMH2dMaKSs76k5KO5--79" value="&lt;font color=&quot;#000000&quot;&gt;CPU load&lt;/font&gt;" style="text;html=1;strokeColor=none;fillColor=none;align=left;verticalAlign=middle;whiteSpace=wrap;rounded=0;labelBackgroundColor=none;fontFamily=JetBrains Mono;fontSource=https%3A%2F%2Ffonts.googleapis.com%2Fcss%3Ffamily%3DJetBrains%2BMono;fontColor=#FFFFFF;" vertex="1" parent="4wfMH2dMaKSs76k5KO5--1">
                    <mxGeometry x="490" y="847.75" width="60" height="30" as="geometry"/>
                </mxCell>
                <mxCell id="4wfMH2dMaKSs76k5KO5--80" value="" style="rounded=0;whiteSpace=wrap;html=1;labelBackgroundColor=none;fontFamily=JetBrains Mono;fontSource=https%3A%2F%2Ffonts.googleapis.com%2Fcss%3Ffamily%3DJetBrains%2BMono;fillColor=#408bff;strokeColor=#02003e;fontColor=#f5f5fb;" vertex="1" parent="4wfMH2dMaKSs76k5KO5--1">
                    <mxGeometry x="480" y="917.75" width="40" height="120" as="geometry"/>
                </mxCell>
                <mxCell id="4wfMH2dMaKSs76k5KO5--81" value="" style="rounded=0;whiteSpace=wrap;html=1;labelBackgroundColor=none;fontFamily=JetBrains Mono;fontSource=https%3A%2F%2Ffonts.googleapis.com%2Fcss%3Ffamily%3DJetBrains%2BMono;fillColor=#408bff;strokeColor=#02003e;fontColor=#f5f5fb;" vertex="1" parent="4wfMH2dMaKSs76k5KO5--1">
                    <mxGeometry x="520" y="947.75" width="40" height="90" as="geometry"/>
                </mxCell>
                <mxCell id="4wfMH2dMaKSs76k5KO5--82" value="" style="rounded=0;whiteSpace=wrap;html=1;labelBackgroundColor=none;fontFamily=JetBrains Mono;fontSource=https%3A%2F%2Ffonts.googleapis.com%2Fcss%3Ffamily%3DJetBrains%2BMono;fillColor=#408bff;strokeColor=#02003e;fontColor=#f5f5fb;" vertex="1" parent="4wfMH2dMaKSs76k5KO5--1">
                    <mxGeometry x="560" y="888.75" width="40" height="149" as="geometry"/>
                </mxCell>
                <mxCell id="4wfMH2dMaKSs76k5KO5--83" value="" style="rounded=0;whiteSpace=wrap;html=1;labelBackgroundColor=none;fontFamily=JetBrains Mono;fontSource=https%3A%2F%2Ffonts.googleapis.com%2Fcss%3Ffamily%3DJetBrains%2BMono;fillColor=#408bff;strokeColor=#02003e;fontColor=#f5f5fb;" vertex="1" parent="4wfMH2dMaKSs76k5KO5--1">
                    <mxGeometry x="600" y="927.75" width="40" height="110" as="geometry"/>
                </mxCell>
                <mxCell id="4wfMH2dMaKSs76k5KO5--84" value="" style="rounded=0;whiteSpace=wrap;html=1;labelBackgroundColor=none;fontFamily=JetBrains Mono;fontSource=https%3A%2F%2Ffonts.googleapis.com%2Fcss%3Ffamily%3DJetBrains%2BMono;fillColor=#408bff;strokeColor=#02003e;fontColor=#f5f5fb;" vertex="1" parent="4wfMH2dMaKSs76k5KO5--1">
                    <mxGeometry x="640" y="957.75" width="40" height="80" as="geometry"/>
                </mxCell>
                <mxCell id="4wfMH2dMaKSs76k5KO5--85" value="" style="endArrow=none;dashed=1;html=1;fontFamily=JetBrains Mono;fontSource=https%3A%2F%2Ffonts.googleapis.com%2Fcss%3Ffamily%3DJetBrains%2BMono;fontColor=#000000;fontStyle=1;strokeWidth=3;strokeColor=#e51601;" edge="1" parent="4wfMH2dMaKSs76k5KO5--1">
                    <mxGeometry width="50" height="50" relative="1" as="geometry">
                        <mxPoint x="460" y="997.75" as="sourcePoint"/>
                        <mxPoint x="740" y="997.75" as="targetPoint"/>
                    </mxGeometry>
                </mxCell>
                <mxCell id="4wfMH2dMaKSs76k5KO5--86" value="&lt;font color=&quot;#000000&quot;&gt;Guaranteed VM1 (20%)&lt;/font&gt;" style="text;html=1;strokeColor=none;fillColor=none;align=left;verticalAlign=middle;whiteSpace=wrap;rounded=0;labelBackgroundColor=none;fontFamily=JetBrains Mono;fontSource=https%3A%2F%2Ffonts.googleapis.com%2Fcss%3Ffamily%3DJetBrains%2BMono;fontColor=#FFFFFF;" vertex="1" parent="4wfMH2dMaKSs76k5KO5--1">
                    <mxGeometry x="690" y="967.75" width="80" height="30" as="geometry"/>
                </mxCell>
                <mxCell id="4wfMH2dMaKSs76k5KO5--87" value="" style="endArrow=none;html=1;strokeWidth=2;" edge="1" parent="4wfMH2dMaKSs76k5KO5--1">
                    <mxGeometry width="50" height="50" relative="1" as="geometry">
                        <mxPoint x="470" y="240" as="sourcePoint"/>
                        <mxPoint x="490" y="240" as="targetPoint"/>
                    </mxGeometry>
                </mxCell>
                <mxCell id="4wfMH2dMaKSs76k5KO5--88" value="&lt;font color=&quot;#000000&quot;&gt;100%&lt;/font&gt;" style="text;html=1;strokeColor=none;fillColor=none;align=left;verticalAlign=middle;whiteSpace=wrap;rounded=0;labelBackgroundColor=none;fontFamily=JetBrains Mono;fontSource=https%3A%2F%2Ffonts.googleapis.com%2Fcss%3Ffamily%3DJetBrains%2BMono;fontColor=#FFFFFF;" vertex="1" parent="4wfMH2dMaKSs76k5KO5--1">
                    <mxGeometry x="440" y="599" width="40" height="21" as="geometry"/>
                </mxCell>
                <mxCell id="4wfMH2dMaKSs76k5KO5--89" value="" style="endArrow=none;html=1;strokeWidth=2;" edge="1" parent="4wfMH2dMaKSs76k5KO5--1">
                    <mxGeometry width="50" height="50" relative="1" as="geometry">
                        <mxPoint x="470" y="600" as="sourcePoint"/>
                        <mxPoint x="490" y="600" as="targetPoint"/>
                    </mxGeometry>
                </mxCell>
                <mxCell id="4wfMH2dMaKSs76k5KO5--90" value="&lt;font color=&quot;#000000&quot;&gt;100%&lt;/font&gt;" style="text;html=1;strokeColor=none;fillColor=none;align=left;verticalAlign=middle;whiteSpace=wrap;rounded=0;labelBackgroundColor=none;fontFamily=JetBrains Mono;fontSource=https%3A%2F%2Ffonts.googleapis.com%2Fcss%3Ffamily%3DJetBrains%2BMono;fontColor=#FFFFFF;" vertex="1" parent="4wfMH2dMaKSs76k5KO5--1">
                    <mxGeometry x="440" y="878.75" width="40" height="21" as="geometry"/>
                </mxCell>
                <mxCell id="4wfMH2dMaKSs76k5KO5--91" value="" style="endArrow=none;html=1;strokeWidth=2;" edge="1" parent="4wfMH2dMaKSs76k5KO5--1">
                    <mxGeometry width="50" height="50" relative="1" as="geometry">
                        <mxPoint x="470" y="879.75" as="sourcePoint"/>
                        <mxPoint x="490" y="879.75" as="targetPoint"/>
                    </mxGeometry>
                </mxCell>
                <mxCell id="4wfMH2dMaKSs76k5KO5--92" value="&lt;font color=&quot;#000000&quot;&gt;100%&lt;/font&gt;" style="text;html=1;strokeColor=none;fillColor=none;align=left;verticalAlign=middle;whiteSpace=wrap;rounded=0;labelBackgroundColor=none;fontFamily=JetBrains Mono;fontSource=https%3A%2F%2Ffonts.googleapis.com%2Fcss%3Ffamily%3DJetBrains%2BMono;fontColor=#FFFFFF;" vertex="1" parent="4wfMH2dMaKSs76k5KO5--1">
                    <mxGeometry x="440" y="1078.75" width="40" height="21" as="geometry"/>
                </mxCell>
                <mxCell id="4wfMH2dMaKSs76k5KO5--93" value="" style="endArrow=none;html=1;strokeWidth=2;" edge="1" parent="4wfMH2dMaKSs76k5KO5--1">
                    <mxGeometry width="50" height="50" relative="1" as="geometry">
                        <mxPoint x="470" y="1079.75" as="sourcePoint"/>
                        <mxPoint x="490" y="1079.75" as="targetPoint"/>
                    </mxGeometry>
                </mxCell>
                <mxCell id="4wfMH2dMaKSs76k5KO5--94" value="" style="rounded=0;whiteSpace=wrap;html=1;labelBackgroundColor=none;fontFamily=JetBrains Mono;fontSource=https%3A%2F%2Ffonts.googleapis.com%2Fcss%3Ffamily%3DJetBrains%2BMono;fillColor=#da47ff;strokeColor=#02003e;fontColor=#f5f5fb;direction=west;" vertex="1" parent="4wfMH2dMaKSs76k5KO5--1">
                    <mxGeometry x="480" y="898.75" width="40" height="19" as="geometry"/>
                </mxCell>
                <mxCell id="4wfMH2dMaKSs76k5KO5--95" value="" style="rounded=0;whiteSpace=wrap;html=1;labelBackgroundColor=none;fontFamily=JetBrains Mono;fontSource=https%3A%2F%2Ffonts.googleapis.com%2Fcss%3Ffamily%3DJetBrains%2BMono;fillColor=#da47ff;strokeColor=#02003e;fontColor=#f5f5fb;direction=west;" vertex="1" parent="4wfMH2dMaKSs76k5KO5--1">
                    <mxGeometry x="520" y="918.75" width="40" height="30" as="geometry"/>
                </mxCell>
                <mxCell id="4wfMH2dMaKSs76k5KO5--96" value="" style="rounded=0;whiteSpace=wrap;html=1;labelBackgroundColor=none;fontFamily=JetBrains Mono;fontSource=https%3A%2F%2Ffonts.googleapis.com%2Fcss%3Ffamily%3DJetBrains%2BMono;fillColor=#da47ff;strokeColor=#02003e;fontColor=#f5f5fb;direction=west;" vertex="1" parent="4wfMH2dMaKSs76k5KO5--1">
                    <mxGeometry x="600" y="908.75" width="40" height="19" as="geometry"/>
                </mxCell>
                <mxCell id="4wfMH2dMaKSs76k5KO5--97" value="" style="rounded=0;whiteSpace=wrap;html=1;labelBackgroundColor=none;fontFamily=JetBrains Mono;fontSource=https%3A%2F%2Ffonts.googleapis.com%2Fcss%3Ffamily%3DJetBrains%2BMono;fillColor=#da47ff;strokeColor=#02003e;fontColor=#f5f5fb;direction=west;" vertex="1" parent="4wfMH2dMaKSs76k5KO5--1">
                    <mxGeometry x="560" y="880" width="40" height="8.75" as="geometry"/>
                </mxCell>
                <mxCell id="4wfMH2dMaKSs76k5KO5--98" value="" style="rounded=0;whiteSpace=wrap;html=1;labelBackgroundColor=none;fontFamily=JetBrains Mono;fontSource=https%3A%2F%2Ffonts.googleapis.com%2Fcss%3Ffamily%3DJetBrains%2BMono;fillColor=#da47ff;strokeColor=#02003e;fontColor=#f5f5fb;direction=west;" vertex="1" parent="4wfMH2dMaKSs76k5KO5--1">
                    <mxGeometry x="640" y="918.75" width="40" height="40" as="geometry"/>
                </mxCell>
                <mxCell id="4wfMH2dMaKSs76k5KO5--99" value="&lt;font color=&quot;#000000&quot;&gt;Guaranteed VM1 (20%)&lt;/font&gt;" style="text;html=1;strokeColor=none;fillColor=none;align=left;verticalAlign=middle;whiteSpace=wrap;rounded=0;labelBackgroundColor=none;fontFamily=JetBrains Mono;fontSource=https%3A%2F%2Ffonts.googleapis.com%2Fcss%3Ffamily%3DJetBrains%2BMono;fontColor=#FFFFFF;" vertex="1" parent="4wfMH2dMaKSs76k5KO5--1">
                    <mxGeometry x="690" y="1168.75" width="80" height="30" as="geometry"/>
                </mxCell>
                <mxCell id="4wfMH2dMaKSs76k5KO5--100" value="&lt;font color=&quot;#000000&quot;&gt;Guaranteed VM1 (20%)&lt;/font&gt;" style="text;html=1;strokeColor=none;fillColor=none;align=left;verticalAlign=middle;whiteSpace=wrap;rounded=0;labelBackgroundColor=none;fontFamily=JetBrains Mono;fontSource=https%3A%2F%2Ffonts.googleapis.com%2Fcss%3Ffamily%3DJetBrains%2BMono;fontColor=#FFFFFF;" vertex="1" parent="4wfMH2dMaKSs76k5KO5--1">
                    <mxGeometry x="690" y="689" width="80" height="30" as="geometry"/>
                </mxCell>
                <mxCell id="4wfMH2dMaKSs76k5KO5--101" value="&lt;font color=&quot;#000000&quot;&gt;Guaranteed VM1 (100%)&lt;/font&gt;" style="text;html=1;strokeColor=none;fillColor=none;align=left;verticalAlign=middle;whiteSpace=wrap;rounded=0;labelBackgroundColor=none;fontFamily=JetBrains Mono;fontSource=https%3A%2F%2Ffonts.googleapis.com%2Fcss%3Ffamily%3DJetBrains%2BMono;fontColor=#FFFFFF;" vertex="1" parent="4wfMH2dMaKSs76k5KO5--1">
                    <mxGeometry x="690" y="209" width="80" height="30" as="geometry"/>
                </mxCell>
                <mxCell id="4wfMH2dMaKSs76k5KO5--102" value="" style="endArrow=none;dashed=1;html=1;fontFamily=JetBrains Mono;fontSource=https%3A%2F%2Ffonts.googleapis.com%2Fcss%3Ffamily%3DJetBrains%2BMono;fontColor=#000000;strokeWidth=3;strokeColor=#e51601;" edge="1" parent="4wfMH2dMaKSs76k5KO5--1">
                    <mxGeometry width="50" height="50" relative="1" as="geometry">
                        <mxPoint x="480" y="240" as="sourcePoint"/>
                        <mxPoint x="720" y="240" as="targetPoint"/>
                    </mxGeometry>
                </mxCell>
                <mxCell id="4wfMH2dMaKSs76k5KO5--103" value="&lt;span style=&quot;font-weight: normal;&quot;&gt;capacity: &lt;/span&gt;&lt;font style=&quot;&quot;&gt;1cpu&lt;/font&gt;&lt;br&gt;&lt;span style=&quot;font-weight: normal;&quot;&gt;available for scheduling: &lt;/span&gt;&lt;font color=&quot;#ff3333&quot; style=&quot;&quot;&gt;0cpu&lt;/font&gt;" style="text;html=1;strokeColor=none;fillColor=none;align=left;verticalAlign=middle;whiteSpace=wrap;rounded=0;labelBackgroundColor=none;fontFamily=JetBrains Mono;fontSource=https%3A%2F%2Ffonts.googleapis.com%2Fcss%3Ffamily%3DJetBrains%2BMono;fontColor=default;fontStyle=1;" vertex="1" parent="4wfMH2dMaKSs76k5KO5--1">
                    <mxGeometry x="50" y="1220" width="230" height="30" as="geometry"/>
                </mxCell>
            </root>
        </mxGraphModel>
    </diagram>
</mxfile>
